<?xml version="1.0" encoding="iso-8859-1"?>
<!-- Generator: Adobe Illustrator 18.0.0, SVG Export Plug-In . SVG Version: 6.00 Build 0)  -->
<!DOCTYPE svg PUBLIC "-//W3C//DTD SVG 1.1//EN" "http://www.w3.org/Graphics/SVG/1.1/DTD/svg11.dtd">
<svg version="1.1" id="Capa_1" xmlns="http://www.w3.org/2000/svg" xmlns:xlink="http://www.w3.org/1999/xlink" x="0px" y="0px"
	 viewBox="0 0 297 297" style="enable-background:new 0 0 297 297;" xml:space="preserve">
<g>
	<path d="M292.845,244.987l-57.085-57.154c-2.538-2.541-5.983-3.969-9.575-3.969c-3.591,0-7.036,1.428-9.574,3.97l-4.865,4.872
		l-15.163-15.182c33.597-43.096,30.613-105.691-8.962-145.316C166.879,11.439,139.299,0,109.963,0
		c-29.337,0-56.917,11.439-77.66,32.209c-42.806,42.862-42.806,112.603,0,155.466c20.743,20.769,48.324,32.207,77.66,32.207
		c24.776,0,48.296-8.158,67.504-23.202l15.158,15.176l-4.895,4.902c-5.275,5.282-5.274,13.84,0.001,19.122l57.083,57.152
		c2.538,2.541,5.983,3.969,9.574,3.969c3.592,0,7.036-1.428,9.574-3.969l28.884-28.921
		C298.121,258.828,298.121,250.27,292.845,244.987z M51.45,168.552c-32.275-32.318-32.276-84.902,0-117.22
		c15.631-15.651,36.411-24.27,58.513-24.27c22.101,0,42.881,8.619,58.511,24.27c32.277,32.317,32.277,84.901,0,117.22
		c-15.629,15.65-36.409,24.268-58.511,24.268S67.08,184.201,51.45,168.552z M254.387,264.322l-37.96-38.005l9.76-9.774
		l37.961,38.006L254.387,264.322z"/>
	<circle cx="95.822" cy="104.215" r="17.174"/>
	<path d="M160.382,65.372c-1.052-0.939-26.123-23.001-57.227-23.001c-9.003,0-17.679,1.835-25.789,5.454
		c-34.929,15.589-42.26,40.257-42.26,58.206c0,38.294,23.049,59.383,64.899,59.383c37.638,0,47.62-8.052,54.676-24.97
		c1.579-3.784,2.62-6.284,5.7-9.033c11.524-10.285,17.367-21.396,17.366-33.024C177.745,86.761,171.903,75.652,160.382,65.372z
		 M142.36,111.223c-7.668,6.845-10.551,13.756-12.656,18.804c-1.836,4.399-2.067,4.522-3.182,5.111
		c-2.78,1.467-9.637,3.215-26.518,3.215c-33.254,0-37.838-15.534-37.838-32.321c0-10.144,2.981-23.119,26.227-33.494
		c4.682-2.089,9.51-3.104,14.761-3.104c20.635,0,39.057,15.998,39.208,16.129c5.367,4.789,8.323,9.345,8.323,12.828
		C150.685,101.874,147.729,106.431,142.36,111.223z"/>
</g>
<g>
</g>
<g>
</g>
<g>
</g>
<g>
</g>
<g>
</g>
<g>
</g>
<g>
</g>
<g>
</g>
<g>
</g>
<g>
</g>
<g>
</g>
<g>
</g>
<g>
</g>
<g>
</g>
<g>
</g>
</svg>
