<?xml version="1.0" encoding="utf-8"?>
<!-- Generator: Adobe Illustrator 24.1.2, SVG Export Plug-In . SVG Version: 6.00 Build 0)  -->
<svg version="1.1" id="Слой_1" xmlns="http://www.w3.org/2000/svg" xmlns:xlink="http://www.w3.org/1999/xlink" x="0px" y="0px"
	 viewBox="0 0 720 624.5" style="enable-background:new 0 0 720 624.5;" xml:space="preserve">
<g>
	<path d="M79.34,476.13c-22.65-21.24-41.33-64.99-10.05-86.97c33.28-15.96,63.24,33.63,39.31,59.09
		c-3.96-1.84-10.12-3.43-11.67,2.19c-1.6,9.27,16.33,9.65,22.45,13.26c9.23,1.45,8.91-10.93,0.24-11.63
		c20.43-28.25,2.09-71.5-32.56-76.38c-39.97-8.95-74.19,32.4-65.23,70.75c6.96,35.11,37.19,58.01,62.06,80.74
		c19.98,17.62,45.73,44.81,33.27,73.34c-23.42,34.96-82.97-8.55-62.34-44.26c8.38,5.58,15.13-2.8,8.3-8.26
		c-7.59-2.75-14.72-9.21-22.79-9.55c-4.5,1.03-5.57,7.99-1.32,10.14c1.94,0.94,3.89,1.89,5.83,2.83
		c-20.51,39.56,24.29,83.71,64.54,71.14c41.46-12.91,43.35-66.47,18.69-96.1C114.39,507.27,95.49,493.04,79.34,476.13z
		 M108.27,528.47C84.51,508.68,51.18,490.92,47.62,457c0.24-1.4,1.84-1.87,2.71-0.74c8.75,11.36,15.82,24.05,27.25,33.1
		C88.36,501.18,106.02,511.56,108.27,528.47z"/>
	<path d="M258.31,580.31c8.78-67.23,12.5-135.16,11.77-202.96c5.08,0.28,13.81,3.12,14.16-4.66c-0.28-10.31-31.82-6.12-39.54-6.23
		c-7.15,0.04-7.18,11.19,0,11.09c4.76-0.44,9.53-0.6,14.3-0.59c0.67,65.72-2.72,131.67-10.93,196.83c-1.19,3.66-2.43-1.06-2.95-2.56
		c-12.61-35.74-22.91-72.28-30.86-109.34c-3.02-14.05-5.69-28.18-8.02-42.36c-2.68-7.79-0.92-33.47-10.23-33.38
		c-11.51-1.86-23.16-2.27-34.74-3.44c-2.9-0.26-5.67,2.74-5.54,5.54c0.45,7.17,9.09,5.43,14.1,6.32
		c-6.05,70.66-5.93,141.85,0.66,212.47c-10.52,0.67-11.75,12.5-1.52,11.94c10.43-3.18,21.28-4.47,31.27-8.95
		c4.63-2.75,2.55-7.47,2.12-11.94c-5.25-54.52-7.85-109.43-4.79-164.17c8.55,48.07,20.95,95.46,37.29,141.5
		C237.19,588.96,253.85,597.1,258.31,580.31z M180.52,445.42c8.88,2.82,3.48,38.3,5.18,47.87c0.17,10.73,0.79,21.19-1.74,31.74
		c-8.28,8.81-5.84-56.83-6.31-62.57C177.67,459.69,176.86,446.06,180.52,445.42z"/>
	<path d="M390.2,601.47c-2.38,0.28-4.75,0.56-7.13,0.83c-4.73-43.24-9.46-86.47-14.2-129.71c12.94,2.45,14.09-9.96,5.51-11.06
		c-2.24-0.01-4.48-0.03-6.72-0.04c-2.02-18.42-4.03-36.84-6.05-55.27c-1.82-7.92,0.19-17.87-4.2-24.8
		c-5.58-3.15-12.44-3.58-18.56-5.36c-2.94-0.69-7.01-1.74-8.61,1.93c-31.42,72.01-51.46,148.87-58.77,227.12
		c-5.7,0.78-16.83-2.52-17.53,5.83c0.13,2.87,2.44,5.71,5.55,5.55c7.53-0.4,15.09-0.43,22.62-0.11c5.83-0.52,17.01,4.43,18.98-3.45
		c7.44-47.16,14.72-94.52,27.81-140.57c9.63,0.06,19.25,0.12,28.88,0.18c4.78,43.69,9.56,87.37,14.34,131.06
		c-4.86,1.05-13.8-0.51-14.06,6.54c0.12,2.72,2.46,5.91,5.55,5.55c6.79-2.18,32.82,0.17,32.14-8.65
		C395.63,604.3,393.29,601.11,390.2,601.47z M301.37,527.98c-9.86,7.57,2.55-35.01,3.09-38.65c1.8-4.33,12.36-42.21,16.36-38.65
		c2.63,5.62-3.8,18.47-4.33,25.19c-2.85,12.8-6.39,25.56-9.51,38.32C306.38,516.17,304.45,525.08,301.37,527.98z M331.95,461.28
		c5.43-19.47,11.55-38.73,18.27-57.79c2.11,19.31,4.23,38.63,6.34,57.94C348.36,461.38,340.15,461.33,331.95,461.28z"/>
	<path d="M458.12,425.45c-2.9,0.02-5.68,2.53-5.54,5.55c0.77,9.95,20.08,3.95,27.19,5.37c9.62-1.3,5.37-13.44-3.38-11.06
		c6.32-28.62-11.59-66.31-45.35-51.35c-26.99,15.71-35.74,50.62-43.04,78.98c-8.6,44.34-7.44,164.66,56.97,161.92
		c32.72-6.95,26.42-45.55,30.15-70.52c9.56,1.82,13.88-9.22,3.97-11.21c-7.43,0.23-14.97,0.45-22.33,0.68
		c-9.17,1.62-7.51,13.72,7.01,10.88c-3.14,17.45,2.4,38.53-9.85,53.24c-26.22,12.23-34.33-43.23-36.51-60.19
		c-22.09-110.3,53.77-208.21,47.89-112.34C462.91,425.41,460.51,425.43,458.12,425.45z M405.74,441.41
		c2.67,2.45,0.27,13.87,0.01,16.12c-0.91,7.93-2.28,15.81-2.51,23.8c-0.42,14.87,0.7,29.74-0.04,44.6c-0.1,1.97-0.4,4.28-2.13,5.23
		C390.63,528.26,394.12,438.32,405.74,441.41z"/>
	<path d="M596.33,582.32c-0.57,0.63-1.14,1.25-1.72,1.88c-31.99-37.47-56.5-81.43-71.18-128.47c35.15-9.76,64.29-37.92,75.36-72.72
		c7.57,3.76,13.09-7.15,4.94-10.18c-6.83-0.99-24.71-8.59-26.06,2.16c0.14,5.58,5.91,5.72,10.15,5.89
		c-10.43,31.5-37.19,56.23-69.19,64.62c-0.15-0.08-0.31-0.14-0.47-0.2c1.37-21.66,3.94-43.22,7.44-64.63
		c3.51-3.86-0.79-10.33-5.75-8.8c-9.85,3.12-20.05,4.84-30.29,5.88c-10.67,2.41-4.6,14.23,4.95,10.49
		c-8.69,70.03-6.11,141.37,7.38,210.63c1.4,5.35,8.84,4.71,13.28,4.98c4.76-0.43,10.78-3.65,9.89-9.19
		c-6.56-40.82-9.24-82.26-8.11-123.59c15.61,44.34,39.46,85.73,70.14,121.35c-3.05,3.23-8.36,7.83-4.02,12.24
		c7.99,6.37,15.3-10.33,21.11-14.51C609.31,585.17,601.31,577.18,596.33,582.32z M503.94,435.27c3.42-0.41,2.6,19.64,2.5,21.75
		c-1.17,19.49-0.66,39.01-0.03,58.48C499.24,544.44,496.88,436.46,503.94,435.27z"/>
	<path d="M686.18,538.68c-16.83-42.29-59.77-75.57-58.41-124.09c3.75-39.93,73.38-17.52,41.12,33.76c-9.13-7.99-17.92-0.1-10.5,6.71
		c6.66,3.89,13.28,7.76,19.93,11.65c9.41,3.19,12.46-8.3,0.15-12.76c14.84-22.22,13.84-57.97-14.8-67.87
		c-27.21-10.3-53.64,10.12-61.02,35.98c-13.98,53.01,33.98,91.96,56.02,134.59c30.3,62.88-66.08,48.26-37.48-14.05
		c3.82,4.34,11.43,0.67,9.78-5.06c-3.53-5.97-11.17-8.79-16.3-13.43c-9.49-3.26-11.35,7.97-2.49,11.86
		c-15.2,24.24-6.36,61.94,22.37,71.1C678.96,616.08,703.62,578.41,686.18,538.68z M667.33,538.92c-1.43,1.69-3.06-2.34-3.79-3.45
		c-12.02-20.96-28.51-39.42-39.07-61.19c-3.04-5.62-10.39-34.76,0.04-14.22c11.3,22.33,29.03,40.93,38.63,64.16
		C665.4,528.76,668.73,533.51,667.33,538.92z"/>
</g>
<g>
	<path d="M90.46,297.72c0,4.19,0.01,8.38,0.01,12.57c-11.79,0.37-23.58,0.23-35.36-0.4c0.07-4.37,0.15-8.74,0.22-13.11
		c0.09-5.2-10.73-5.2-10.82,0c-0.32,19.04-0.64,38.09-0.97,57.16c-0.09,5.2,10.73,5.2,10.82,0c0.2-11.55,0.39-23.11,0.59-34.66
		c11.84,0.63,23.69,0.78,35.53,0.4c0.01,11.26,0.02,22.53,0.03,33.79c0,5.19,8.08,5.2,8.07,0c-0.02-18.58-0.03-37.17-0.05-55.75
		C98.53,292.53,90.46,292.52,90.46,297.72z"/>
	<path d="M158.75,337.92c-10.47-0.08-20.95-0.15-31.42-0.23c-0.57-9.53-0.95-19.07-1.16-28.61c5.28-1.25,17.03,3.05,18.19-4.25
		c-1.29-7.46-12.96-2.71-18.35-3.82c-0.02-1.68-0.02-3.36-0.03-5.05c9.19-0.18,18.38-0.35,27.57-0.53c5.19-0.1,5.21-9.8,0-9.7
		c-8.35,0.16-16.7,0.32-25.06,0.48c-3.31,0.06-13.06-2.2-13.07,3.57c-0.02,9.96,0.14,19.91,0.5,29.87c1.38,6-2.37,26.29,5.97,26.06
		c12.29,0.09,24.57,0.18,36.86,0.27C163.95,346.03,163.95,337.95,158.75,337.92z"/>
	<path d="M220.24,314.05c10.06-12.47-0.16-25.43-14.68-24.92c-5.6-0.54-11.23-0.59-16.84-0.49c-5.76-0.55-13.92-0.85-12.36,7.44
		c0.18,16.7,0.36,33.4,0.54,50.1c0.06,5.19,10.82,5.21,10.77,0c-0.08-7.71-0.17-15.42-0.25-23.12c3.84-0.61,7.75-0.62,11.65-0.83
		c3.42,5.21,14.81,33.63,21.65,29.38c1.78-1.04,2.69-3.72,1.45-5.52c-5.46-7.97-10.33-16.32-14.65-24.96
		C212.35,320.02,216.99,317.93,220.24,314.05z M214.13,308.01c-5.6,8.44-18.2,5.34-26.8,6.92c-0.06-5.39-0.12-10.78-0.18-16.16
		C193.58,299.34,218.69,296.42,214.13,308.01z"/>
	<path d="M283.49,282.22c-57.74,4.48-39.08-14.77-40.38,55.59c0.08,3.34-0.02,8.44,4.47,8.89c6.9,0.01,38.67,4.16,38.06-5.55
		c0-2.5-1.86-5.32-4.04-5.03c-9.4,1.25-18.86,1.53-28.29,0.94c-0.23-9.94-0.46-19.87-0.69-29.81c5.38-1.15,21.17,3.5,21.68-3.93
		c-0.94-7.52-16.21-2.85-21.87-4.15c-0.06-2.66-0.12-5.32-0.19-7.98c6.16-0.92,35.76,2.72,35.29-4.94
		C287.53,284.2,285.68,282.06,283.49,282.22z"/>
	<path d="M375.14,289.33c-11.02-0.05-22.05-0.1-33.07-0.15c-3.57-0.02-4.2,3.04-4.01,5.91c1.13,17.21,2.25,34.42,3.38,51.63
		c0.34,5.17,10.24,5.2,9.9,0c-0.64-9.77-1.28-19.55-1.92-29.32c4.99-1.62,14.98,1.05,15.46-6.26c-0.8-8.48-10.76-2.93-16.08-3.18
		c-0.23-3.56-0.47-7.13-0.7-10.69c9.01,0.04,18.02,0.08,27.04,0.12C380.34,297.43,380.35,289.35,375.14,289.33z"/>
	<path d="M398.52,284.16c-19.24,13.07-17.26,50.25,4.62,59.45C446.7,352.95,440.88,262.71,398.52,284.16z M424.62,320.78
		c-1.39,7.45-6.01,15.39-13.85,15.58c-15.25-1.63-17.22-30.22-8.91-40.12C417.47,278.4,428.92,306.81,424.62,320.78z"/>
	<path d="M472.94,312.5c8.65-2.25,15.19-13.51,7.95-20.73c-5.53-6.64-38.93-9.68-40.28,0.99c0.89,16.97,1.78,33.93,2.68,50.9
		c0.27,5.18,10.28,5.2,10.01,0c-0.5-9.47-0.99-18.93-1.49-28.4c4.43,0.22,8.86-0.07,13.25-0.82c4.26,9.92,8.53,19.83,12.79,29.75
		c0.86,2,3.81,2.45,5.52,1.45C489.69,343.14,474.24,318.61,472.94,312.5z M451.38,307.15c-0.19-3.58-0.38-7.17-0.56-10.75
		C483.23,289.41,483.65,308.83,451.38,307.15z"/>
	<path d="M567.09,291.66c-13.41-0.77-26.82-1.53-40.23-2.3c-5.19-0.3-5.17,7.78,0,8.07c4.86,0.28,9.73,0.56,14.59,0.83
		c0.28,15.68,0.57,31.36,0.85,47.05c0.09,5.19,9.6,5.21,9.51,0c-0.28-15.5-0.56-31-0.84-46.5c5.37,0.31,10.75,0.61,16.12,0.92
		C572.28,300.03,572.26,291.96,567.09,291.66z"/>
	<path d="M618.57,287.64c0.02,4.28,0.03,8.56,0.05,12.85c-8.81-0.09-17.61-0.18-26.42-0.27c-0.02-3.9-0.04-7.79-0.07-11.69
		c-0.03-5.19-10.08-5.2-10.05,0c0.1,16.99,0.19,33.97,0.29,50.96c0.03,5.19,10.08,5.2,10.05,0c-0.06-10.4-0.12-20.8-0.17-31.2
		c8.8,0.09,17.6,0.18,26.4,0.27c0.04,10.31,0.07,20.62,0.11,30.93c0.02,5.19,8.09,5.2,8.07,0c-0.06-17.28-0.12-34.57-0.18-51.85
		C626.62,282.45,618.55,282.44,618.57,287.64z"/>
	<path d="M679.29,338.49c-10.15-0.09-20.3,0.36-30.42,1.29c-0.41-8-0.81-15.99-1.22-23.99c5.35-1.3,19.15,2.92,20.03-4.38
		c-1.04-7.58-14.91-2.57-20.43-3.68c-0.14-2.74-0.28-5.49-0.42-8.23c10.22,0.17,20.45,0.33,30.67,0.5c5.2,0.08,5.2-8.58,0-8.66
		c-8.11-0.13-16.21-0.26-24.32-0.4c-3.34-0.05-16.74-2.3-16.43,3.87c0.86,16.99,1.73,33.97,2.59,50.96
		c0.18,3.61,5.01,4.71,7.83,3.29c10.68-1.04,21.4-1.55,32.12-1.45C684.48,347.66,684.49,338.54,679.29,338.49z"/>
</g>
<path d="M309.11,131.13c-7.6-64.5-87.67-92.44-139.47-58.83C74.99,20.62-16.91,149.22,68.6,218.72
	c-42.91,10.37-9.45,50.31,40.41,30.49C202.6,305.83,313.93,239.59,309.11,131.13z M48.84,161.34c-7.78-22.52-0.2-46.44,15.26-63.77
	c39.46-47.4,128.08-30.11,136.46,33.43c1.09,8.22,1.17,29.24-5.33,34.52c-7.6-2.32-18.5-17.39-16.73-25.48
	c2.41-5.79-4.09-16.11-7.38-21.03c-58.58-72.8-153.54,31.71-68.73,89.07c-4.5,2.06-11.74,6.54-16.84,4.9
	C66.96,202.2,54.89,181.56,48.84,161.34z M270.13,212.11c-42,18.7-112.07-22.9-124.42-65.47c-2.32-8.22-5.6-22.79,7.2-22.8
	c9.83-0.66,15.96,8.26,15.48,17.25c6.4,33.39,43.04,48.56,73.19,53.78C250.2,196.06,284.89,197.26,270.13,212.11z M207.2,217.15
	c5.54,2.34,11.23,4.27,17.01,5.75c-21.64,13.46-50.95,14.92-74.03,4.37c10.36-7.48,19.82-16.15,28.21-25.84
	C187.5,207.66,197.26,212.95,207.2,217.15z M112.05,203.28c-57.47-30.13-36.36-112.58,29.01-96.73
	c-12.27,21.72-6.74,48.62,8.29,67.86C138.45,185.93,125.91,195.67,112.05,203.28z M236.95,184.51c-10.92-2.32-23.19-6.34-33.8-12.55
	c10.22-20.73,9.35-46.06-1.14-66.56c50.68-26.59,90.82,40.75,56.69,82.24C251.48,186.43,244.01,186.02,236.95,184.51z M64.48,238.58
	c-10.77-11.85,18.53-12.77,25.16-15.46c7.95-2.61,15.72-5.85,23.17-9.66c7.47-3.82,14.62-8.24,21.38-13.2
	c5.27-3.87,10.79-10.88,17.36-12.4c7.23-1.36,16.02,10.52,11.61,16.74C138.67,225.9,97.56,257.13,64.48,238.58z M209.57,257.83
	c-22.91,4.6-53.25,1.14-73.03-11.56c-4.19-5.3,4.09-9.4,8.4-9.58c7.21,0.28,13.86,3.87,20.9,5.22c16.57,3.14,34.02,1.62,49.75-4.49
	c13.44-5.35,13.94-10.23,29.9-7.94c5.78,0.02,17.11,0.04,6.82,6.87C239.66,246.21,225.13,253.81,209.57,257.83z M295.85,170.08
	c-3.17,11.24-7.08,22.07-12.88,32.06c-2.01-6.4-8.51-10.13-14.55-12.14c37.41-51.38-9.07-131.03-71.14-92.58
	c-5.1-7.49-11.5-13.99-18.75-19.35C241.75,42.43,321.31,97.99,295.85,170.08z"/>
<path d="M320.14,312.25c5.82-13.42-16.76-14.48-14.63-0.76c-10.31,4.59-3.97,21.92,6.4,14.54
	C320.27,329.2,326.97,318.03,320.14,312.25z"/>
<path d="M228.72,409.84c-14.51,1.89-3.84,21.81,6.85,12.95c9.23,6.5,20.86-7.83,9.2-12.95C243.2,401.03,230.18,401.01,228.72,409.84
	z"/>
<path d="M23.74,500.28c-3.09-2.05-7.65-1.38-10.24,1.14c-15.44-7.2-18.84,19.61-2.16,16.76c4.23,12.78,22.45,4.37,15.19-7.06
	C28.31,507.45,27.3,502.63,23.74,500.28z"/>
<path d="M583.71,469.7c-3.09-2.05-7.65-1.38-10.24,1.14c-15.44-7.2-18.84,19.61-2.16,16.76c4.23,12.78,22.45,4.37,15.19-7.06
	C588.28,476.87,587.27,472.05,583.71,469.7z"/>
<path d="M339.15,555.13c-4.05-0.02-16.87,1.44-12.19,7.63c4.66,4.4,9.28,10.93,15.55,12.83
	C352.8,573.36,352.14,554.33,339.15,555.13z M342.74,570.06C342.74,570.06,342.74,570.06,342.74,570.06
	C342.82,570.06,342.97,570.28,342.74,570.06z"/>
<path d="M712.97,491.84c0.01-18.54-12.52-9.7-21.57-2.91c-9.88,4.44,14.77,16.69,19.37,16.76
	C717.52,505.79,712.48,495.92,712.97,491.84z"/>
<path d="M336.6,596.96c-2.06-7.32-13.5-7.69-15.7-0.32C316.42,610.82,340.3,611.49,336.6,596.96z"/>
<path d="M719.59,452.6c-3.15-10.03-18.77-5.02-15.45,4.99C707.29,467.62,722.92,462.61,719.59,452.6z"/>
<g>
	<path d="M566.98,222c3.59-12.28,3.87-25.86,5.8-38.57c-1.47,3.6-4.73,6.39-8.39,7.33C564.68,194.24,559.17,229.45,566.98,222z"/>
	<path d="M712.36,158.31c2.08-12.45-3.97-24.78-12.52-33.78c13.22-27.29-14.99-46.05-31.24-63.22c14.34-8.99,18.14-39.67-3.38-40.86
		c-16.52,2.42-17.48,26.23-10.58,37.59c-21.97,7.77-51.72,1.26-66.19,23.85c-1.44,9.54-3.35,18.87-5.25,28.13
		c18.26,2.21,76.95,18.6,78.77-10.07c-1.02-1.49-3.29-0.13-4.19,0.77c-15.46,12.16-47.42,3.85-65.79,0.98
		c2.39-35.39,45.12-25.27,68.32-35.37c7.68,9.18,18.24,16.58,25.75,26.11c18.64,22.52-3.15,46.1-27.47,48.54
		c-16.96,7.25,26.57,6.67,35.73-7.94c35.05,48.43-41.67,46.07-69.98,36.03c-17.18-4.81-32.95-13.94-48.18-23.02
		c-1.14,7.55-1.27,13.02-1.31,15.59c4.03,2.43,7.81,4.69,11.84,6.92c-2.2,14.59-4.39,29.19-6.63,43.77
		c4.48,14.25,13.73-36.24,14.65-39.49c4.97,2.49,10.06,4.75,15.23,6.79c-28.99,75.79-17.19,77.36,8.77,3.2
		c5.89,1.97,11.87,3.6,17.92,4.85c-33.33,77.54-20.85,71.74,8.99,1.58c5.77,0.82,11.59,1.27,17.43,1.33
		c-2.48,3.25-35.29,54.66-18.44,45.28c9.45-15.56,18.99-31.14,29.93-45.71c6.52-0.56,13.11-1.59,19.51-3.33
		c-11.03,14.8-31.91,68.71-48.14,69.71c-24.6,4.52-97.44-10.89-94.46-43c-0.6,0.07-1.2,0.16-1.81,0.18c-2.21,2.7-5.22,5.4-8.21,5.99
		c-3.02,12.28,8.95,17.91,17.2,24.1c27.53,18.78,62.29,27.07,95.25,21.51c12.85-3.17,23.94-32.97,32.01-44.23
		c7.86-13.83,15.58-27.74,23.66-41.44C713.54,172.92,716.11,166.17,712.36,158.31z M663.1,53.1c-3.49-5.35-4.86-15.08,2.33-18.31
		c4.37-0.96,5.59,5.3,5.35,7.53C670.31,46.71,667.22,50.36,663.1,53.1z"/>
	<path d="M453.55,184.51c-2.14,11.26-4.57,22.46-6.75,33.71c-2.5,14.14-2.59,37.13-22.03,36.98c10.5-60.46,21-120.92,31.5-181.38
		c3.76,0.03,7.7,0.28,11.64,0.4c1.02-3.38,2.11-6.68,3.26-10.09c-64.18-0.51-128.37-1.02-192.55-1.52
		c-2.61-0.02-17.61,0.73-13.96-5.68c2.6-4.56,12.4-1.94,16.53-1.73c64.06,2.33,128.25,1.29,192.35,2.2
		c1.18-3.24,2.45-6.47,3.81-9.69c-2.93-0.2-5.85-0.1-8.78-0.15c1.33-13.88-13.55-25.08-26.53-19.86
		c-4.12-5.05-12.06-6.12-17.78-3.39c-2.33-7.45-11.24-11.71-18.58-9.15c-4.11-9.97-17.74-11.81-25.77-5.2
		c-4.93-7-15.67-7.94-21.84-2.34c-8.05-2.59-17.12,0.01-22.48,6.63c-8.37-4.63-19.69-0.79-23.67,7.83
		c-7.67-3.67-17.38,1.61-19.31,9.75c-7.29,0.64-13.43,5.74-15.26,12.97c-9.11-1-21.1,1.07-22.74,11.75
		c10.47,3.54,20.23,9.09,28.66,16.11c3.25-0.07,6.46-0.17,9.6-0.14c0.55,3.75,1.15,7.49,1.72,11.23
		c23.07,27.24,26.9,57.94,15.88,93.52c4.89,26.84,9.93,53.66,14.85,80.49c-0.11-0.58-6.58-0.36-9.62-1.47
		c-16.68-8.17-12.51-34.54-16.81-50.02c-2.34,4.39-4.91,8.53-7.69,12.49c2.85,12.45,1.33,26.91,8.57,38.01
		c15.94,22.21,105.01,12.4,131.35,8.03c21.64-2.16,22.14-29.98,25.55-46.32c2.1-10.01,4.11-20.03,6.08-30.07
		C458.72,187.18,455.7,185.96,453.55,184.51z M295.81,41.71c2.77,0.65,6.61-1.41,6.21-4.73c-1.24-5.11,5.22-8.68,8.48-4.26
		c2.72,3.88,9.03,2.63,9.14-2.48c0.18-8.18,10.19-10.69,14.7-4.64c-18.22,6.54-7.03,22.94-0.52,11.88
		c-0.27,0.67,0.23-0.27,0.48-0.72c0.18-0.17,0.66-0.72,0.78-0.9c0.54-0.37,1.6-0.77,2.19-0.87c0.49-0.23,3.06,0.45,2.5,0.39
		c2.51,2.07,5.84,1.31,7.62-1.21c1.2-1.67,4.96-3.76,7.85-3.22c3.98,0.73,8.01,5.23,11.28,0.15c3.11-10.93-16.3-12.09-22.4-6.92
		c0.07-1.08-0.43-2.4-1.19-3.33c7.8-10.35,15.02,1.75,20.45-4.99c3.7-4.86,9.42-1.02,10.13,3.74c0.51,3.47,6.04,4.93,8.2,2.16
		c3.03-5.97,15.48-9.34,15.55,0c-0.96,4.5,4.69,8.61,8.2,4.77c4-4.38,11.38-1.59,9.95,4.72c-1.15,5.05,4.46,7.78,8.2,4.77
		c14.83-10.7,8.82,6.53,18.84,2.36c7.55-5.08,17.31,0.3,16.38,9.1c-57.12-0.45-114.25-0.56-171.36-1.99
		C288.95,42.56,292.23,40.87,295.81,41.71z M349.69,260.23c-9.64-62.31-18.01-124.81-25.14-187.45c9.01,0.07,18.01,0.14,27.02,0.21
		c4.97,62.59,9.91,125.18,14.88,187.76C360.86,260.74,355.27,260.56,349.69,260.23z M401.72,258.77c-4.6,0.53-9.2,0.95-13.81,1.27
		c-0.1-62.25-0.19-124.51-0.29-186.76c11.71,0.09,23.42,0.19,35.13,0.28C415.53,135.27,407.8,196.93,401.72,258.77z"/>
</g>
<path d="M575.95,20.24C561.5-4.3,529.82-5.31,509.65,12.77c-33.86,27.15-54.56,122.23-53.54,164.96
	c32.23,17.15,19.44-9.24,15.93,50.69c-0.58,12.03-1.55,30.42,12.85,35.03c27.12,6.6,31-47.03,36.43-64.82
	c-0.11,0.54,5.04,1.81,5.44,1.89c9.99-0.35,4.78,10.76,11.97,12.73c3.85,0.2,5.27-4.8,8.55-5.92c7.37,0.15,7.64-4.45,8.64-10.58
	c1.12-4.46,2.14-8.62,3.41-13.03c6.08,3.11,9-5.38,8.12-10.3c-0.48-22.6,4.87-43.74,9.35-65.69
	C581.88,79.58,590.88,46.78,575.95,20.24z M503.85,229.69c-1.72,5.92-6.16,27.84-16.23,24.34c-4.78-1.66-5.68-8.06-5.89-12.34
	c-0.67-17.84,2.12-35.61,5.42-53.09c8.25,2.42,16.5,4.84,24.75,7.26C509.53,207.21,507.1,218.56,503.85,229.69z M539.66,24.27
	c-13.87,7.49-26.81,16.51-35.55,30.02c-1.22,1.68-4.5,3.85-6.64,2.31c-2.4-1.73-0.89-6.23,0.03-8.31
	c6.81-15.17,19.48-27.91,34.96-34.14C541.41,10.44,549.61,17.88,539.66,24.27z"/>
</svg>
