<?xml version="1.0" encoding="utf-8"?>
<!-- Generator: Adobe Illustrator 24.1.2, SVG Export Plug-In . SVG Version: 6.00 Build 0)  -->
<svg version="1.1" id="Слой_1" xmlns="http://www.w3.org/2000/svg" xmlns:xlink="http://www.w3.org/1999/xlink" x="0px" y="0px"
	 viewBox="0 0 495.57 720" style="enable-background:new 0 0 495.57 720;" xml:space="preserve">
<g>
	<path d="M52.95,372.62c4.9-2.62,9.22-6.33,12.97-11.1c7.49-9.37,11.24-20.84,11.24-34.19c0-8.26-1.99-14.94-5.62-20.02
		c-3.68-5.15-8.71-8.39-15.14-9.45c-1.02-0.1-2.15-0.33-3.39-0.68c-9.37-1.43-14.05-4.05-14.05-7.5c0-1.75,0.62-3.23,1.85-4.34
		c1.28-1.16,3.15-1.84,5.49-2.07c2.81-0.27,6.13,0.12,9.58,1.36c2.97,1.07,6.24,3.14,9.65,5.86c4.09-13.12,6.13-19.69,10.22-32.88
		c-5.15-2.9-10.45-4.88-15.71-6.07c-4.99-1.13-10.31-1.51-15.84-0.99c-11.62,1.09-21.13,5.62-28.23,13.92
		c-7.24,8.47-10.86,19.11-10.86,31.87c0,8.37,1.82,15.36,5.49,20.75c3.7,5.43,9.11,9.15,16.1,10.99c1.92,0.44,3.58,0.76,4.98,1
		c6.6,1.4,9.9,3.65,9.9,6.93c0,1.86-0.64,3.51-1.92,4.76c-1.23,1.21-3.11,1.9-5.49,2.08c-3.28,0.24-6.79-0.6-10.47-2.37
		c-3.52-1.69-7.9-4.63-12.97-8.94C6.44,345.09,4.29,351.85,0,365.31c6.09,4.49,12.24,7.72,18.46,9.71
		c6.22,1.99,12.33,2.73,18.33,2.25C42.67,376.81,48.05,375.24,52.95,372.62z"/>
	<path d="M152.9,261.7c-1.92,8.4-3.25,15.24-4.09,20.36c-0.97,5.9-1.79,11.54-2.3,16.8c-0.23,0.05-0.34,0.08-0.57,0.14
		c-0.6-7.36-2.32-17.26-5.17-29.74c-0.55-2.12-0.87-3.44-0.96-3.97c-2.66-11.28-3.99-16.92-6.64-28.21
		c-13.87,3.1-20.81,4.53-34.68,7.03c-5.31,40.96-10.64,81.91-15.97,122.87c13.18-2.06,19.77-3.27,32.96-5.94
		c1.64-19.38,2.45-29.07,4.09-48.45c0.34-5,0.64-8.73,0.77-11.08c0.12-2.11,0.3-5.89,0.64-11.22c0.26,2.41,0.8,5.95,1.6,10.58
		c0.65,3.79,1.51,7.78,2.62,11.92c4.29,17.57,6.44,26.34,10.73,43.85c8-1.81,11.99-2.76,19.99-4.72
		c4.29-19.54,6.44-29.32,10.73-48.9c1.23-5.62,2.12-10.01,2.62-13.15c0.61-3.8,1.13-7.6,1.6-11.33c0.08,2.66,0.31,6.25,0.64,10.75
		c0.13,1.77,0.26,3.57,0.38,5.4c0.13,1.83,0.26,3.66,0.38,5.48c1.63,18.62,2.45,27.93,4.09,46.55c13.18-3.45,19.77-5.25,32.96-8.93
		c-4.94-38.7-9.88-77.4-14.82-116.1c-13.85,3.77-20.77,5.61-34.62,9.05C157.08,243.14,155.68,249.33,152.9,261.7z"/>
	<path d="M226.94,318.98c4.7,4.6,10.29,7.64,16.22,9c6.08,1.4,12.67,1.06,19.61-0.91c6.85-1.95,13.43-5.34,19.54-10.19
		c6.17-4.89,11.62-10.93,16.16-17.92c4.52-6.96,8.05-14.76,10.6-23.21c2.47-8.15,3.7-16.66,3.7-25.53c0-8.87-1.15-16.89-3.58-23.76
		c-2.42-6.84-6.03-12.81-10.54-17.36c-4.6-4.63-10.2-7.79-16.22-9.16c-6.03-1.37-12.69-0.95-19.67,1.03
		c-7.07,2.01-13.77,5.37-19.74,10.14c-6.03,4.82-11.51,11.05-16.1,18.21c-4.62,7.22-8.21,15.1-10.6,23.19
		c-2.38,8.07-3.51,16.72-3.51,25.7c0,8.98,1.14,16.96,3.51,23.72C218.64,308.52,222.26,314.4,226.94,318.98z M251.27,250.64
		c2.92-4.99,6.81-8.18,11.5-9.51c4.68-1.33,8.55-0.32,11.43,3c2.85,3.3,4.28,8.51,4.28,15.46c0,6.79-1.41,12.75-4.28,17.7
		c-2.84,4.91-6.71,8.05-11.43,9.39c-4.73,1.34-8.66,0.38-11.5-2.88c-2.86-3.29-4.28-8.49-4.28-15.28
		C246.99,261.58,248.4,255.55,251.27,250.64z"/>
	<path d="M323.86,306.4c13.17-3.34,19.76-4.94,32.94-7.88c0-20.1,0-30.14,0-50.24c9.06,18.08,13.6,27.17,22.66,45.49
		c16.26-3.18,24.4-4.58,40.66-6.77c-10.6-18.69-21.33-37.31-32.17-55.84c9.36-21.29,18.76-42.56,28.21-63.8
		c-15.22,2.15-22.83,3.48-38.04,6.49c-7.14,18.56-14.25,37.13-21.32,55.71c0-20.49,0-30.74,0-51.23
		c-13.17,2.94-19.76,4.53-32.94,7.88C323.86,226.28,323.86,266.34,323.86,306.4z"/>
	<path d="M489.39,194.67c0-13.04,0-19.55,0-32.59c-20.99-0.08-41.68,2-62.53,4.27c0,40.06,0,80.12,0,120.18
		c21.29-2.31,41.91-3.73,63.3-4.27c0-13.04,0-19.55,0-32.59c-12.14,0-18.2,0.22-30.34,1.03c0-5.06,0-7.59,0-12.64
		c10.73-0.71,16.1-0.93,26.83-1.01c0-12.31,0-18.47,0-30.78c-10.73,0.09-16.1,0.3-26.83,1.01c0-4.63,0-6.94,0-11.57
		C471.64,194.92,477.56,194.69,489.39,194.67z"/>
	<path d="M61.59,170.81l-36.92,42.83c-0.99,1.15-1.22,2.78-0.59,4.16c0.63,1.38,2.02,2.27,3.54,2.27h128.19
		c2.15,0,3.89-1.74,3.89-3.89s-1.74-3.89-3.89-3.89H36.11l33.71-39.11c1.32-1.53,1.25-3.82-0.17-5.26l-32.77-33.43h401.39
		c2.15,0,3.89-1.74,3.89-3.89c0-2.15-1.74-3.89-3.89-3.89H27.61c-1.57,0-2.98,0.94-3.59,2.38c-0.61,1.44-0.29,3.11,0.81,4.23
		L61.59,170.81z"/>
	<path d="M78.66,196.43c0.07,1.58,1.28,2.92,2.92,2.92c5.3,0,10.6,0,15.91,0c1.53,0,2.99-1.34,2.92-2.92
		c-0.07-1.58-1.28-2.92-2.92-2.92c-1.68,0-3.37,0-5.05,0c0-0.05,0.01-0.09,0.01-0.14c0-14.12,0-28.24,0-42.35c1.27,0,2.54,0,3.81,0
		c1.53,0,2.99-1.34,2.92-2.92c-0.07-1.58-1.28-2.92-2.92-2.92c-4.89,0-9.79,0-14.68,0c-1.53,0-2.99,1.34-2.92,2.92
		c0.07,1.58,1.28,2.92,2.92,2.92c1.68,0,3.36,0,5.03,0c0,14.12,0,28.24,0,42.35c0,0.05,0.01,0.09,0.01,0.14c-1.68,0-3.37,0-5.05,0
		C80.06,193.52,78.59,194.86,78.66,196.43z"/>
	<path d="M136.47,145.61c-3.56,2.31-5.83,5.93-7.38,9.8c-3.85,9.59-4.54,22.08,0.03,31.47c3.92,7.39,13.26,12.68,20.92,7.15
		c7.36-5.31,9.14-16.21,9.1-24.66c-0.04-8.13-1.25-19.38-8.8-24.16C146.18,142.57,140.54,142.97,136.47,145.61z M153.18,166.03
		c0.46,6.69-0.09,14.2-3.69,20.05c-1.68,2.74-4.33,4.94-7.72,4.32c-3.48-0.64-6.02-3.49-7.61-6.48c-3.29-6.75-2.7-15.25-0.92-22.37
		c1.37-5.49,4.89-13.56,12-12.21C151.8,150.6,152.82,160.76,153.18,166.03z"/>
	<path d="M162.83,193.23c0.07,1.58,1.28,2.93,2.92,2.92c3.22-0.01,6.43-0.03,9.65-0.04c1.53-0.01,2.99-1.34,2.92-2.92
		c-0.07-1.58-1.28-2.93-2.92-2.92c-0.39,0-0.78,0-1.18,0.01c-0.21-12.38-0.41-24.77-0.62-37.15c6.04,12.16,12.08,24.31,18.12,36.47
		c-0.11,0-0.22,0-0.34,0.01c-1.53,0.03-2.99,1.32-2.92,2.92c0.07,1.56,1.28,2.95,2.92,2.92c2.66-0.05,5.33-0.1,7.99-0.16
		c1.53-0.03,2.99-1.32,2.92-2.92c-0.06-1.36-0.99-2.59-2.32-2.86c0-0.02,0-0.03,0-0.04c-0.99-13.52-1.25-27.08-0.82-40.63
		c0.35,0,0.7,0,1.05,0c1.53,0,2.99-1.34,2.92-2.92c-0.07-1.58-1.28-2.92-2.92-2.92c-2.57,0-5.15,0-7.72,0
		c-1.53,0-2.99,1.34-2.92,2.92c0.07,1.58,1.28,2.92,2.92,2.92c0.28,0,0.56,0,0.83,0c-0.33,10.49-0.24,20.98,0.28,31.46
		c-5.24-10.55-10.49-21.11-15.73-31.66c0.62-0.54,1.04-1.31,1-2.16c-0.07-1.58-1.28-2.92-2.92-2.92c-2.85,0-5.7,0-8.55,0
		c-1.53,0-2.99,1.34-2.92,2.92c0.07,1.58,1.28,2.92,2.92,2.92c0.1,0,0.2,0,0.3,0c0.23,13.64,0.45,27.28,0.68,40.93
		c-0.88,0-1.76,0.01-2.64,0.01C164.22,190.32,162.76,191.65,162.83,193.23z"/>
	<path d="M212.5,191.47c-0.05,2.2,1.93,3.1,3.6,2.73c7.09-0.16,14.19-0.31,21.28-0.47c0.07,0,0.15,0.02,0.22,0.02
		c0.08,0,0.17-0.02,0.25-0.03c0.01,0,0.01,0,0.02,0c2.2-0.05,3.11-2.08,2.72-3.73c0.11-1.34,0.23-2.69,0.34-4.03
		c0.06-0.71-0.37-1.58-0.85-2.06c-0.51-0.51-1.34-0.89-2.06-0.85c-0.75,0.03-1.54,0.28-2.06,0.85c-0.15,0.2-0.3,0.39-0.46,0.59
		c-0.26,0.46-0.4,0.95-0.4,1.47c-0.06,0.66-0.11,1.33-0.17,1.99c-5.52,0.12-11.04,0.24-16.55,0.36c0.22-12.11,0.28-24.25,0.09-36.36
		c-0.01-0.88,0.02-1.87,0-2.86c0.71-0.01,1.43-0.03,2.14-0.04c1.53-0.03,2.99-1.32,2.92-2.92c-0.07-1.56-1.28-2.95-2.92-2.92
		c-3.31,0.06-6.62,0.12-9.93,0.18c-1.53,0.03-2.99,1.32-2.92,2.92c0.07,1.56,1.28,2.95,2.92,2.92c0.63-0.01,1.25-0.02,1.88-0.03
		c0.03,0.87,0.05,1.73,0.06,2.6c0.05,3.28,0.06,6.57,0.06,9.85c0.01,7.57-0.04,15.15-0.1,22.72
		C212.56,186.73,212.55,189.1,212.5,191.47z"/>
	<path d="M247.78,146.28c-0.07-1.56-1.28-2.95-2.92-2.92c-3.53,0.06-7.06,0.13-10.59,0.19c-1.53,0.03-2.99,1.32-2.92,2.92
		c0.07,1.56,1.28,2.95,2.92,2.92c0.75-0.01,1.51-0.03,2.26-0.04c4.14,5.01,8.55,9.79,13.21,14.32c-0.05,8.53-0.1,17.06-0.15,25.59
		c-0.37,0-0.75,0-1.12,0.01c-1.53,0.01-2.99,1.34-2.92,2.92c0.07,1.57,1.28,2.93,2.92,2.92c2.46-0.01,4.92-0.03,7.38-0.04
		c1.53-0.01,2.99-1.34,2.92-2.92c-0.07-1.57-1.28-2.93-2.92-2.92c-0.14,0-0.28,0-0.42,0c0.05-8.16,0.1-16.32,0.15-24.49
		c4.14-4.97,8.1-10.1,11.83-15.39c0.07-0.1,0.12-0.21,0.17-0.32c1.05-0.01,2.09-0.01,3.14-0.02c1.53-0.01,2.99-1.34,2.92-2.92
		c-0.07-1.57-1.28-2.93-2.92-2.92c-2.82,0.02-5.65,0.04-8.47,0.05c-1.53,0.01-2.99,1.34-2.92,2.92c0.05,1.04,0.6,1.98,1.44,2.5
		c-2.53,3.51-5.01,6.74-7.73,10.07c-3.1-3.06-6.11-6.22-8.98-9.5c0.27,0,0.54-0.01,0.81-0.01
		C246.39,149.17,247.85,147.87,247.78,146.28z"/>
	<path d="M320.88,148.57c-0.04,0-0.07-0.02-0.12-0.03c-1.73-0.01-3.46-0.02-5.18-0.04c-0.68-1.63-1.35-3.26-2.07-4.87
		c-0.43-0.96-1.83-1.19-2.66-0.7c-0.4,0.24-0.63,0.57-0.77,0.94c-0.74,1.54-1.54,3.04-2.32,4.57c-2.41-0.02-4.82-0.03-7.23-0.05
		c-0.79-0.17-1.71,0.25-2.1,0.92c-0.47,0.81-0.26,1.64,0.29,2.26c0.07,0.09,0.15,0.16,0.23,0.23c0.06,0.05,0.11,0.12,0.17,0.17
		c1.62,1.2,3.27,2.35,4.94,3.47c-1.07,1.96-2.13,3.92-3.25,5.85c-0.61,1.04-0.14,2.02,0.64,2.53c0.54,0.6,1.4,0.88,2.29,0.3
		c2.3-1.49,4.61-2.98,6.91-4.48c2.44,1.49,4.9,2.96,7.37,4.41c1.64,0.96,3.16-0.74,2.86-2.16c0.06-0.43,0-0.88-0.19-1.31
		c-0.86-1.93-1.66-3.88-2.48-5.83c1.3-0.84,2.59-1.68,3.89-2.52C323.96,151.02,322.66,148.26,320.88,148.57z"/>
	<path d="M357.35,148.57c-0.04,0-0.07-0.02-0.12-0.03c-1.73-0.01-3.46-0.02-5.18-0.04c-0.68-1.63-1.35-3.26-2.07-4.87
		c-0.43-0.96-1.83-1.19-2.66-0.7c-0.4,0.24-0.63,0.57-0.77,0.94c-0.74,1.54-1.54,3.04-2.32,4.57c-2.41-0.02-4.82-0.03-7.23-0.05
		c-0.79-0.17-1.71,0.25-2.1,0.92c-0.47,0.81-0.26,1.64,0.29,2.26c0.07,0.09,0.15,0.15,0.23,0.23c0.06,0.05,0.11,0.12,0.17,0.17
		c1.62,1.2,3.27,2.35,4.94,3.47c-1.07,1.96-2.13,3.92-3.25,5.85c-0.61,1.04-0.14,2.02,0.64,2.53c0.54,0.6,1.4,0.88,2.29,0.3
		c2.3-1.49,4.61-2.98,6.91-4.48c2.44,1.49,4.9,2.96,7.37,4.41c1.64,0.96,3.16-0.74,2.86-2.16c0.06-0.43,0-0.88-0.19-1.31
		c-0.86-1.93-1.66-3.88-2.48-5.83c1.3-0.84,2.59-1.68,3.89-2.52C360.43,151.02,359.13,148.26,357.35,148.57z"/>
	<path d="M391.97,148.57c-0.04,0-0.07-0.02-0.12-0.03c-1.73-0.01-3.46-0.02-5.18-0.04c-0.68-1.63-1.35-3.26-2.07-4.87
		c-0.43-0.96-1.83-1.19-2.66-0.7c-0.4,0.24-0.63,0.57-0.77,0.94c-0.74,1.54-1.54,3.04-2.32,4.57c-2.41-0.02-4.82-0.03-7.23-0.05
		c-0.79-0.17-1.71,0.25-2.1,0.92c-0.47,0.81-0.26,1.64,0.29,2.26c0.07,0.09,0.15,0.16,0.23,0.23c0.06,0.05,0.11,0.12,0.17,0.17
		c1.62,1.2,3.27,2.35,4.94,3.47c-1.07,1.96-2.13,3.92-3.25,5.85c-0.61,1.04-0.14,2.02,0.64,2.53c0.54,0.6,1.4,0.88,2.29,0.3
		c2.3-1.49,4.61-2.98,6.91-4.48c2.44,1.49,4.9,2.96,7.37,4.41c1.64,0.96,3.16-0.74,2.86-2.16c0.06-0.43,0-0.88-0.19-1.31
		c-0.86-1.93-1.66-3.88-2.48-5.83c1.3-0.84,2.59-1.68,3.89-2.52C395.05,151.02,393.75,148.26,391.97,148.57z"/>
	<path d="M50.2,417.18l161.05-31.8l-1.46-7.4l141.12-27.86c12.71,1.75,22.34,4.49,27.04,3.84c5.31-0.74,88.55-17.38,103.17-20.3
		c1.21-0.24,2-1.41,1.78-2.62c-0.22-1.21-1.37-2.03-2.59-1.82c-14.86,2.52-95.85,15.98-99.3,16.14c-3.14,0.15-6.98-0.35-9.33-2.67
		c-2.41-2.38-1.81-6.24,0.43-8.56c1.63-1.68,3.78-2.85,5.96-3.63c3.25-1.16,83.27-19.5,97.98-22.81c1.2-0.27,1.96-1.46,1.7-2.67
		c-0.26-1.2-1.43-1.98-2.64-1.74c-14.63,2.86-97.95,19.1-103.14,20.44c-4.59,1.18-12.46,7.38-23.55,13.83l-141.11,27.86l-1.16-5.89
		L45.1,391.32c-7.14,1.41-11.79,8.34-10.38,15.48C36.13,413.94,43.06,418.59,50.2,417.18z M57.72,402.4
		c1.46,7.39-10.01,9.65-11.47,2.26C44.79,397.27,56.26,395.02,57.72,402.4z"/>
	<path d="M495.26,428.52c-0.19-2.12-0.45-4.23-0.78-6.23c-2-12.38-9.79-23.48-19.76-30.83c-10.8-7.95-24.14-11.86-37.31-13.39
		c-13.87-1.62-27.88-0.07-41.34,3.51c-7.82,2.08-15.17,5.24-23.28,6.06c-7.16,0.72-14.41,0.7-21.44,2.45
		c-11.36,2.83-21.55,9.8-25.52,21.19c-2.48,7.16-2.02,14.95-2.02,22.42c0,3.06-0.1,6.12,0.23,9.16c0.26,2.35,0.38,4.61,1.13,6.89
		c1.34,4.11,3.95,7.69,7.28,10.42c3.42,2.8,7.53,4.7,11.82,5.73c7.27,1.75,14.82,1.32,22.23,1.64c7.6,0.33,14.96,2.01,22.18,4.35
		c26.17,8.48,53.88,26.15,82.06,14.85c6.36-2.55,12.24-6.37,16.55-11.75c1.81-2.26,3.3-4.76,4.45-7.42
		c2.58-5.95,3.44-12.47,3.72-18.89c0.14-3.27,0.14-6.53,0.12-9.8C495.55,435.46,495.56,431.92,495.26,428.52z M480.38,452.01
		c-8.23,9.31-21.1,12.45-32.93,11.67c-15.01-0.99-29.08-7.65-42.85-13.33c-7.05-2.91-14.19-5.68-21.57-7.57
		c-7.6-1.94-15.22-2.5-23.03-2.64c-3.81-0.07-7.64-0.14-11.41-0.76c-5-0.93-9.98-2.81-13.44-6.82c-3.37-3.9-3.79-9.26-2.89-14.21
		c1.91-10.48,9.74-17.01,19.34-19.88c5.91-1.77,11.92-1.96,18.02-2.45c3.79-0.3,7.6-0.71,11.32-1.51c3.67-0.78,7.14-2.18,10.69-3.35
		c12.37-4.07,25.24-6.42,38.24-5.89c22.55,0.92,48.67,10.63,55.86,34.98C488.91,430.98,487.97,443.43,480.38,452.01z"/>
	<path d="M409.3,416.94c-1.7-1.36-4.46-2.87-5.28-5.02c-1.48-3.84,1.33-7.52-1.29-11.22c-1.92-2.7-5.63-2.99-8.66-2.65
		c-3.56,0.39-6.91,1.84-10.34,2.89c-10.64,3.27-22.18,2.76-32.78,6.18c-5.78,1.86-10.02,7.98-10.79,13.9
		c-1.44,11.08,12.47,9.09,19.53,8.7c6.88-0.38,13.81,0.3,20.48,2c4.55,1.16,8.97,2.79,13.54,3.85c6.13,1.41,15.59,2.3,19.81-3.62
		C417.24,426.71,413.65,420.42,409.3,416.94z"/>
	<path d="M476.08,433.52c-0.69-0.19-1.4-0.24-2.11-0.28c-0.29-0.01-0.57-0.02-0.86-0.03c-7.11-0.25-13.34-2.08-18.55-7.16
		c-1.36-1.33-2.91-2.73-4.81-2.79c-2.06-0.06-3.76,1.49-5.55,2.51c-5.02,2.86-11.49,1.29-16.96,2.31
		c-5.85,1.09-17.53,8.54-12.86,15.73c3.81,5.88,12.66,7.37,18.87,8.77c6.49,1.46,13.27,2.69,19.95,2.28
		c5.89-0.36,11.84-2.18,16.68-5.61c2.38-1.69,4.48-3.77,6.08-6.22c1.13-1.73,3.7-5.79,2.5-7.85
		C477.97,434.33,477.04,433.78,476.08,433.52z"/>
	<path d="M458.74,419.94c0.67,3.48,3.72,5.92,6.95,6.92c4.61,1.43,12.01,0.98,12.83-4.8c0.26-1.82-0.04-3.67-0.49-5.45
		c-0.48-1.9-1.13-3.79-2.28-5.38c-0.03-0.05-0.07-0.09-0.1-0.14c-2.49-3.34-6.53-4.24-10.11-2.03
		C461.98,411.26,457.86,415.38,458.74,419.94z"/>
	<path d="M421.19,409.53c2.09-0.53,4.15-1.07,5.88-0.94c2.12,0.16,4.23,0.95,6.16,1.8c4.16,1.83,8.13,4.06,12.71,4.61
		c7.67,0.93,18.19-9.85,13.03-17.39c-3.99-5.84-13.67-6.79-20.07-7.49c-0.17-0.02-0.34-0.04-0.51-0.05
		c-5.3-0.56-10.73-0.66-16.04-0.08c-3.71,0.4-8.4,2.08-10.24,5.46c-1.64,3.02-2.96,7.76-1.71,11.17
		C412.27,411.73,416.8,410.64,421.19,409.53z"/>
	<path d="M429.34,419.09c1.19,0.26,2.33,0.96,2.88,2.04c0.22,0.44,0.34,0.92,0.54,1.37c0.45,1.01,1.26,1.35,2.3,0.94
		c1.65-0.65,1.97-3.82,1.53-5.29c-0.27-0.9-0.83-1.69-1.48-2.35c-1.01-1.04-2.32-1.85-3.48-2.34c-1.5-0.64-3.13-0.92-4.75-1
		c-2.48-0.13-5.31,0.31-7.19,2.08c-0.85,0.79-1.63,1.7-2.02,2.79c-1.04,2.9,1.29,6.47,4.12,7.29c0.63,0.18,1.74,0.38,2.31-0.03
		c0.44-0.32,0.64-0.94,0.48-1.46c-0.23-0.74-0.78-1.09-0.87-1.92C423.43,418.4,427.44,418.67,429.34,419.09z"/>
	<path d="M473.28,505.69H52.01c-5.35,0-9.69,4.34-9.69,9.69c0,5.35,4.34,9.69,9.69,9.69h9.03c3.64,85.99,91.58,154.81,199.54,154.81
		c107.96,0,195.89-68.81,199.54-154.81h13.16c5.35,0,9.69-4.34,9.69-9.69C482.97,510.03,478.63,505.69,473.28,505.69z
		 M136.49,556.65c0.93,0.65,1.8,1.17,2.58,1.56c4.92,2.78,8.65,7.14,11.24,13.06c2.55,5.84,3.71,12.74,3.23,20.32
		c-0.78,12.24-4.43,21.13-10.68,25.24c-3.13,2.13-6.59,2.79-10.33,2c-3.74-0.79-7.7-2.95-11.84-6.36
		c-4.23-3.49-8.36-8.09-12.42-13.49c-4.07-5.4-7.96-11.49-11.79-17.9c2.7-4.88,4.2-7.77,7.4-14.36c3.48,4.9,6.47,8.95,8.92,11.81
		c2.58,3,5.04,5.32,7.42,6.73c1.73,1.02,3.15,1.4,4.09,1.06c0.97-0.35,1.54-1.35,1.62-2.79c0.15-2.55-2.22-5.74-6.99-9.52
		c-1.02-0.76-2.22-1.69-3.6-2.79c-5.01-4.19-8.76-8.81-11.34-13.54c-2.55-4.68-3.83-9.33-3.77-14.3c0.1-7.57,2.9-13.16,8.77-18.05
		c5.76-4.79,13.56-7.86,22.87-7.86c4.43,0,8.64,0.77,12.54,2.31c4.1,1.62,8.19,4.1,12.1,7.65c-4,11.31-6,16.75-9.94,27.09
		c-2.51-3.32-4.93-5.89-7.21-7.51c-2.61-1.86-5.19-2.92-7.39-3.32c-1.83-0.33-3.31-0.2-4.35,0.4c-1,0.58-1.54,1.57-1.62,2.91
		C125.87,549.61,129.33,552.77,136.49,556.65z M221.18,563.68c-6.19-0.43-9.28-0.68-15.44-1.28c-1.23,28.83-2.45,57.65-3.68,86.48
		c-11.6-3.11-17.32-5.06-28.39-9.72c1.55-26.69,3.1-53.39,4.65-80.08c-6.06-0.89-9.07-1.37-15.05-2.43
		c0.93-14.67,1.39-22,2.32-36.67c18.98,0.22,37.97,0.37,56.96,0.45C222,537.73,221.73,546.38,221.18,563.68z M303.75,615.53
		c-0.61,6.51-1.68,11.82-3.2,15.93c-3.07,8.83-7.4,15.84-12.99,20.77c-5.82,5.13-12.45,7.91-19.79,8.03
		c-7.38,0.12-14.05-2.43-19.92-7.4c-5.63-4.77-10.02-11.69-13.14-20.49c-1.44-4.08-2.53-9.36-3.19-15.77
		c-0.61-5.91-0.75-13.81-0.5-23.67c0.62-24.15,1.23-48.31,1.85-72.46c10.8,0.04,16.2,0.05,27,0.06
		c-0.08,24.73-0.17,49.45-0.25,74.18c-0.03,8.74,0.6,14.68,1.76,17.77c1.23,3.25,3.3,4.95,6.26,4.92c2.92-0.04,4.99-1.74,6.18-5.06
		c1.26-3.5,1.85-9.44,1.77-17.79c-0.23-24.68-0.45-49.36-0.68-74.03c10.8-0.01,16.2-0.03,26.99-0.08
		c0.74,23.93,1.48,47.86,2.22,71.79C304.43,601.88,304.3,609.63,303.75,615.53z M347.28,639.99c-11.14,4.56-16.89,6.45-28.54,9.46
		c-1.77-43.03-3.54-86.05-5.32-129.08c20.07-0.12,30.1-0.21,50.12-0.46c0.76,11.81,1.14,17.71,1.9,29.52
		c-9.19,1.45-13.83,2.1-23.17,3.22c0.32,5.57,0.48,8.35,0.8,13.92c8.48-1.42,12.69-2.22,21-4.02c0.72,11.27,1.08,16.91,1.8,28.18
		c-8.28,2.92-12.5,4.23-21.05,6.53C345.81,614.36,346.3,622.9,347.28,639.99z M422.68,537.4c-8.63,2.3-13.01,3.37-21.89,5.34
		c0.2,4,0.29,6,0.49,9.99c7.9-2.49,11.79-3.83,19.4-6.69c0.05,7.15,0.08,10.72,0.13,17.87c-7.15,4.65-10.85,6.83-18.45,10.87
		c0.6,12.28,0.9,18.41,1.5,30.69c-9.27,8-14.19,11.6-24.44,18.04c-2.22-34.57-4.45-69.14-6.67-103.71
		c20.01-0.26,30.01-0.42,49.94-0.81C422.68,526.35,422.68,530.03,422.68,537.4z"/>
	<path d="M171.05,466.02c-8.29-0.5-17.52,0.64-24.05,6.22c-5.3,4.52-8.47,13.46-4.43,19.8c3.18,4.99,9.5,5.74,14.85,4.73
		c6.57-1.24,11.86-5.41,15.2-11.12c2.06-3.53,3.4-7.42,4.53-11.34c1.37,0.21,2.73,0.45,4.07,0.71c7.77,1.51,15.37,3.76,23.09,5.5
		c9.86,2.22,19.8,4.08,29.8,5.58c10.84,1.62,21.87,3.18,32.83,3.61c5.05,0.2,10.46-0.38,14.72-3.34c3.86-2.69,6.4-6.71,6.52-11.47
		c0.12-4.9-7.5-4.9-7.62,0c-0.1,3.95-4.07,6.21-7.53,6.89c-4.94,0.98-10.38,0.04-15.33-0.43c-10.67-1-21.29-2.43-31.85-4.28
		c-9.67-1.7-19.27-3.73-28.78-6.16c-5.94-1.52-11.93-3.01-17.99-3.97c1.07-4.31,2.06-8.65,2.89-13.01
		c0.93-4.89,1.71-9.81,2.35-14.75c0.58-4.49,1.03-9,1.37-13.51c0.15-1.99,0.33-3.92,0.63-5.88c0.24-1.61,0.29-3.29-1.15-4.36
		c-1.26-0.94-2.76-1.27-4.27-0.66c-1.37,0.55-1.99,1.73-2.28,3.12c-0.37,1.77-1.05,3.43-1.75,5.11c-2.16-2.35-5.04-4.07-8.33-4.7
		c-8.76-1.67-17.29,3.01-21.34,10.82c-3.61,6.96-4.32,17.12,2.96,22.06c7.51,5.11,16.79,0.47,21.99-5.62
		c1.64-1.92,3.16-3.94,4.57-6.04c-1.14,8.96-2.82,17.87-5.13,26.55C171.4,466.05,171.22,466.03,171.05,466.02z M168.93,475.12
		c-1.98,6.03-5.14,11.72-11.09,13.67c-2.06,0.67-4.1,1.02-5.95,0.73c-0.73-0.11-1.33-0.29-1.93-0.65c-0.43-0.26-1-0.77-1.18-1.27
		c-2.11-5.87,3.9-11.21,9.48-12.84c3.61-1.06,7.38-1.36,11.16-1.23C169.25,474.05,169.1,474.59,168.93,475.12z M170.2,435.49
		c-2.89,4.32-6.9,10.13-12.61,10.18c-5.43,0.05-6.17-5.62-4.93-9.9c1.45-5,5.39-9.5,10.76-10.19c2.87-0.37,5.85,0.41,7.82,2.45
		c0.82,0.85,1.41,1.84,1.77,2.88C172.13,432.47,171.2,434,170.2,435.49z"/>
	<path d="M303.18,421.97c0.69-4.2,1.49-8.41,2.52-12.56c5.23-0.37,10.55-1.76,15.17-4.1c5.86-2.97,10.09-8.26,9.34-15.09
		c-0.77-7-6.19-12.94-13.68-11.27c-8.01,1.78-12.2,11.04-14.89,17.91c-0.62,1.59-1.17,3.2-1.69,4.83c-3.16-0.27-6.3-0.9-9.44-1.69
		c-8.68-2.18-17.31-4.31-26.11-5.95c-5.08-0.95-10.19-1.8-15.31-2.55c-4.95-0.72-9.99-1.42-15-1c-8.45,0.71-17.18,4.58-20.95,12.65
		c-0.87,1.86-0.52,4.11,1.37,5.21c1.65,0.97,4.34,0.51,5.21-1.37c4-8.57,14.15-9.52,22.5-8.75c10.47,0.97,20.96,3.16,31.23,5.37
		c8.08,1.74,16.18,4.64,24.45,5.58c-0.72,3.11-1.32,6.25-1.85,9.39c-4.16-3.04-9.55-4.34-14.62-2.68
		c-6.78,2.22-10.91,8.81-13.2,15.55c-0.36,0.28-0.7,0.64-0.98,1.11c-1.16,1.96-2.78,3.69-4.64,5.13c0.7-6.56,0.02-13.17-2.87-18.89
		c-3.92-7.75-14.16-10.21-21.43-5.48c-6.92,4.49-8.6,13.67-6.27,21.15c0.01,0.02,0.02,0.05,0.03,0.07
		c-0.43,0.63-0.82,1.29-1.18,1.98c-1.04-0.39-2.22-0.39-3.14,0.26c-0.93,0.66-1.89,1.33-2.87,1.97c0.17-9.46-3.05-19.05-12.94-21.85
		c-6.07-1.72-12.81,0.73-16.63,5.67c-3.78,4.88-3.82,11.47-0.8,16.74c0.05,0.08,0.11,0.16,0.16,0.24
		c-3.93,6.37-4.78,14.55-0.05,20.96c4.25,5.76,11.36,6.89,17.62,3.72c5.62-2.84,9.21-8.53,10.95-14.41
		c0.19-0.63,0.36-1.29,0.52-1.95c1.58-0.71,3.12-1.55,4.61-2.47c-0.48,4.7,0.23,9.51,2.11,13.23c2.8,5.55,9.12,9.2,15.36,7.98
		c5.68-1.11,9.53-6.29,11.83-11.24c1.08-2.34,2.05-4.85,2.86-7.46c1.89-0.72,3.68-1.67,5.36-2.81c-0.08,5.24,0.91,10.62,4.13,14.48
		c2.62,3.15,6.98,4.12,10.8,2.76c4.3-1.54,7.37-5.31,9.53-9.19c0.6-1.08,1.16-2.18,1.73-3.28c-0.21,2.33-0.27,4.66,0.12,6.94
		c0.76,4.52,3.99,8.5,8.87,8.62c5.35,0.13,9.28-4.31,12.08-8.33c2.81-4.03-3.79-7.85-6.58-3.85c-0.92,1.32-4.16,5.98-6.16,4.15
		c-1.74-1.59-0.81-6.02-0.57-8.01C300.84,440.27,301.68,431.08,303.18,421.97z M308.84,399.25c1.57-4.07,5.11-13.1,10.32-12.98
		c1.19,0.03,2.41,0.91,3.05,2.62c0.82,2.18,0.74,4.55-0.55,6.32c-2.62,3.62-8.12,5.15-12.34,6.01c-0.42,0.09-0.85,0.14-1.27,0.21
		C308.31,400.7,308.56,399.98,308.84,399.25z M212.4,454.64c-2.36,2.65-6.77,5.5-10.21,3.04c-3.17-2.27-3.79-6.86-2.87-10.39
		c0.17-0.64,0.39-1.25,0.63-1.84c3.32,2.53,7.34,4.15,11.46,4.64c1.27,0.15,2.5,0.14,3.72,0.06
		C214.45,451.78,213.57,453.33,212.4,454.64z M217.06,442.37c-0.43,0.1-0.86,0.19-1.3,0.25c-3.95,0.53-8.06-0.68-11.21-3.09
		c0.86-0.66,1.8-1.24,2.79-1.73c4.34-2.14,0.54-8.63-3.8-6.5c-1.22,0.6-2.37,1.34-3.45,2.17c-0.27-0.93-0.4-1.89-0.29-2.88
		c0.41-3.56,3.68-6.28,7.14-6.69c3.92-0.47,7.43,2.28,9.04,5.68C217.8,433.43,217.63,438.19,217.06,442.37z M247.84,456.48
		c-3.13,2.84-6.85,3.4-9.64,0.04c-1.02-1.23-1.83-3.37-2.17-5.61c-0.28-1.8-0.15-4.62,0.3-6.57c0.12-0.53,0.27-1.07,0.44-1.61
		c3.75,4.13,9.03,6.71,14.9,6.79C251.6,449.53,250.15,454.39,247.84,456.48z M253.98,441.51c-4.7,0.73-9.43-0.66-12.53-5.22
		c0.67-0.33,1.43-0.55,2.37-0.71c2.07-0.35,3.23-2.9,2.71-4.78c-0.6-2.19-2.7-3.07-4.78-2.71c-1.05,0.18-2.01,0.49-2.93,0.87
		c-0.24-2.73,0.27-5.47,2-7.59c1.65-2.02,4.2-2.82,6.75-2.61c2.67,0.21,4.3,1.64,5.45,3.98c1.47,2.99,2,6.35,2.03,9.65
		C255.08,433.41,254.74,441.39,253.98,441.51z M286.02,444.78c-1.37,2.65-2.55,5.51-4.48,7.81c-1,1.19-2.38,2.63-4,2.83
		c-2.8,0.34-3.27-3.58-3.65-5.49c-0.51-2.56-0.54-5.3-0.29-7.89c0.33-3.45,1.29-6.98,2.65-10.16c1.16-2.7,2.92-5.94,5.21-7.58
		c2.44-1.74,4.89-1.86,7.6-0.97c2.11,0.69,3.94,2.31,5.27,4.4C292.25,433.42,288.9,439.2,286.02,444.78z"/>
	<path d="M55.51,452.68c0,1.46,1.34,3.07,2.92,2.92c1.85-0.18,3.7-0.37,5.54-0.56c-0.66,2.63-1.3,5.27-1.88,7.93
		c-1.08,4.96-3.39,11.62-1.07,16.55c1.16,2.46,3.74,4.15,6.49,4.15c3.16,0.01,5.4-2.33,7.47-4.41c1.48-1.5,2.87-3.11,4.21-4.76
		c-0.24,1.48-0.48,2.95-0.75,4.43c-0.26,1.45,0.53,3.43,2.03,3.94c1.31,0.45,3.25,0.05,3.87-1.29c2.17-4.74,4.83-9.24,7.82-13.51
		c0.8-1.14,1.56-2.35,2.6-3.29c0.65-0.59,1.78-1.4,2.58-0.62c0.89,0.86,0.14,2.65-0.11,3.6c-0.43,1.62-0.99,3.2-1.52,4.79
		c-0.48,1.44-0.97,2.91-0.97,4.44c0,2.99,1.97,5.64,5.11,5.74c3.13,0.1,5.61-1.84,7.65-4.26c0.64,1,1.49,1.88,2.57,2.55
		c2.6,1.63,6.09,1.81,8.91,0.69c3.39-1.35,5.83-3.97,7.88-6.91c0.9-1.29,0.24-3.24-1.05-3.99c-1.46-0.85-3.09-0.25-3.99,1.05
		c-1.01,1.45-2.4,3.04-3.9,3.92c-1.91,1.13-5.83,1.2-5.95-1.88c-0.02-0.53,0.01-1.07,0.08-1.62c3.81-0.52,7.76-1.33,10.76-3.87
		c3.94-3.34,4.15-10.6-0.72-13.26c-3.06-1.67-6.52-0.3-9.02,1.7c-2.28,1.82-3.76,4.22-4.8,6.91c-0.72,1.85-1.29,3.89-1.68,5.93
		c-0.01,0.02-0.03,0.04-0.05,0.06c-1.14,1.69-2.18,3.48-3.56,4.99c-0.32,0.35-0.66,0.7-1.02,1.01c-0.18,0.15-0.36,0.3-0.55,0.43
		c-0.1,0.07-0.41,0.35-0.54,0.29c-0.04-0.02-0.06-0.05-0.07-0.09c-0.01-0.04-0.01-0.08,0-0.12c0.07-0.9,0.41-1.73,0.69-2.58
		c0.54-1.6,1.1-3.2,1.51-4.85c0.84-3.42,1.21-7.83-2.15-10.06c-1.54-1.02-3.39-1.22-5.15-0.87c1.08-1,2.08-2.09,3.01-3.26
		c3.26-4.13,7.58-11.19,4.94-16.54c-2.59-5.25-8.83-3.34-12.24-0.2c-4.73,4.35-6.87,11.01-8.5,17.03c-0.49,1.81-0.9,3.63-1.28,5.46
		c-2.56,4.7-5.6,9.14-9.21,13.1c-0.75,0.82-1.53,1.61-2.32,2.4c-0.58,0.58-1.52,1.81-2.41,1.9c-1.52,0.15-1.7-1.68-1.71-2.77
		c-0.02-1.77,0.36-3.5,0.69-5.23c0.64-3.29,1.36-6.57,2.13-9.83c0.44-1.86,0.94-3.71,1.42-5.56c3.11-0.32,6.21-0.64,9.32-0.94
		c1.57-0.15,2.92-1.23,2.92-2.92c0-1.46-1.34-3.07-2.92-2.92c-2.58,0.25-5.15,0.51-7.73,0.78c0.71-2.54,1.42-5.08,2.17-7.61
		c1.07-3.61-4.56-5.15-5.63-1.55c-0.97,3.25-1.89,6.51-2.77,9.79c-2.37,0.24-4.74,0.49-7.11,0.72
		C56.86,449.91,55.51,450.99,55.51,452.68z M114.17,464.61c0.23-0.46,0.47-0.92,0.76-1.35c0.35-0.53,0.16-0.28,0.62-0.79
		c0.69-0.76,1.97-2.05,3.09-2.05c1.6-0.01,1.38,1.94,0.82,3.03c-0.01,0.01-0.02,0.02-0.02,0.04c-0.08,0.14-0.16,0.27-0.24,0.38
		c-0.97,1.2-2.68,1.53-4.05,1.9c-0.52,0.14-1.05,0.24-1.58,0.35C113.74,465.6,113.94,465.09,114.17,464.61z M95.49,442.05
		c0.55-0.51,2.28-2.03,2.94-1.22c0.76,0.93-0.52,3.61-0.87,4.46c-0.48,1.16-1.09,2.28-1.75,3.35c-1.84,2.99-4.34,5.56-7.26,7.52
		C89.86,451.02,91.65,445.59,95.49,442.05z M86.87,463.65c0.71-0.31,1.42-0.64,2.1-1c-0.28,0.34-0.55,0.69-0.82,1.04
		c-0.6,0.8-1.17,1.62-1.74,2.45C86.55,465.3,86.71,464.48,86.87,463.65z"/>
	<path d="M54.72,495.9c23.77,0,47.54,0,71.31,0c3.76,0,3.76-5.84,0-5.84c-23.77,0-47.54,0-71.31,0
		C50.96,490.07,50.96,495.9,54.72,495.9z"/>
	<path d="M124.4,432.74c3.76,0,3.76-5.84,0-5.84c-21.44,0-42.88,0-64.32,0c-3.76,0-3.76,5.84,0,5.84
		C81.52,432.74,102.96,432.74,124.4,432.74z"/>
	<path d="M74.61,116.17h376.07c4.78,0,8.65-3.87,8.65-8.65c0-4.78-3.87-8.65-8.65-8.65h-8.06c0-24.76-59.66-61.57-137.13-71.77
		c0.09-0.69,0.17-1.38,0.17-2.09C305.66,10.75,287.3,0,262.96,0c-24.34,0-42.7,10.75-42.7,25.01c0,0.76,0.08,1.51,0.18,2.25
		C144.46,37.2,86.36,71.03,86.36,98.87H74.61c-4.78,0-8.65,3.87-8.65,8.65C65.96,112.3,69.84,116.17,74.61,116.17z M262.96,13.62
		c17.48,0,29.08,6.85,29.08,11.39c0,0.19-0.05,0.4-0.09,0.6c-8.98-0.79-18.15-1.22-27.46-1.22c-10.36,0-20.55,0.48-30.49,1.38
		c-0.07-0.26-0.12-0.51-0.12-0.75C233.88,20.47,245.48,13.62,262.96,13.62z"/>
	<polygon points="351.57,667.18 378.31,720 409.95,720 376.81,654.4 	"/>
	<polygon points="117.74,720 149.11,720 174,668.91 148.57,656.52 	"/>
	<polygon points="250.53,684.41 251.03,720 279.31,720 278.81,684.01 	"/>
</g>
</svg>
