<?xml version="1.0" encoding="utf-8"?>
<!-- Generator: Adobe Illustrator 24.1.2, SVG Export Plug-In . SVG Version: 6.00 Build 0)  -->
<svg version="1.1" id="Слой_1" xmlns="http://www.w3.org/2000/svg" xmlns:xlink="http://www.w3.org/1999/xlink" x="0px" y="0px"
	 viewBox="0 0 534.33 720" style="enable-background:new 0 0 534.33 720;" xml:space="preserve">
<g>
	<path d="M46.35,87.11c6.89,10.9,19.37,17.62,33.07,11.42c13.13-5.94,19.68-23.48,24.02-36.25c4.33-12.74,6.05-31.63,15.81-42.41
		c-2.63,9.76-2.39,20.97,6.94,25.11c8.61,3.82,14.56-0.6,19.17-6.96c0.58,3.59,2.11,6.74,5.03,9.01c8.71,6.77,17.11,1.34,22.99-5.89
		c0.84,1.81,2.07,3.43,3.89,4.71c7.71,5.45,17.68,1.73,24.97-3.99c-0.3,1.66-0.6,3.32-0.93,4.98c-8.71,4.22-17.33,8.67-25.86,13.21
		c-11.64,6.2-27.51,21.15-14.73,34.65c9.56,10.1,26.55,2.8,33.34-6.91c7.11-10.17,11.08-22.8,13.82-35.85
		c15.46-7.4,33.04-13.55,39.73-30.97c3.78-9.86-2.46-27.86-15.1-18.21c-1.38,1.05-1.91,3.21-1.28,4.82
		c0.95,2.42,2.64,1.69,4.59,1.28c1.53-0.32,3.3,0.38,4.2,1.66c0.66,0.94,0.9,2.11,1.06,3.25c0.67,4.57-1.68,8.29-4.64,11.63
		c-2.11,2.8-4.28,4.84-7.03,7c-4.99,3.91-10.4,6.26-16.13,8.82c-1.24,0.56-2.46,1.15-3.7,1.71c1.79-10.36,3.1-20.7,4.82-30.01
		c0.87-4.69-6.32-6.71-7.2-1.98c-1.13,6.08-2.07,12.55-3.07,19.15c-0.61,0.25-1.19,0.66-1.66,1.29c-3.74,5-17.12,14.66-21.81,6.57
		c-3.71-6.39,2.69-19.2,5.3-25.33c1.85-4.37-4.57-8.18-6.44-3.77c-2.07,4.87-5.61,12.51-6.98,19.84c-1.75,3.53-3.51,7.32-6.36,10.1
		c-4.4,4.3-12.58,5.18-13.37-2.68c-0.84-8.3,4.01-19.59,7.98-26.54c2.39-4.17-4.05-7.94-6.44-3.77c-1.68,2.93-3.75,7.05-5.52,11.61
		c-0.25,0.23-0.48,0.5-0.68,0.83c-3.71,6.1-7.3,20.37-16.26,20.2c-5.78-0.11-7.01-5.47-6.58-10.29c0.51-5.61,2.76-10.92,6.63-15.04
		c1.54-1.63,3.54-2.46,2.96-5.07c-0.46-2.09-2.43-3.47-4.55-3c-1.2,0.27-2.33,0.61-3.44,0.98c-0.52,0.06-1.03,0.23-1.49,0.55
		c-26.15,10.39-25.29,51.65-37.59,72.43c-10.72,18.11-23.32,16.41-31.5,8.12c6.06-1.15,11.94-4.49,16.66-10.51
		c15.89-20.29-8.61-48.18-26.52-25.56c-6.25,7.89-7.02,18.25-4.12,27.48c-7.18-3.53-12.11-11.48-12.23-20.08
		c-0.07-4.8-7.53-4.81-7.46,0C22.9,73.76,33.83,84.72,46.35,87.11z M189.23,81.46c-2.7,4.4-8.03,10.15-13.78,10.21
		c-17.36,0.19-10.86-16.22-1.54-22.23c7.89-5.09,16.72-9.29,25.36-13.38C196.97,65.18,193.87,73.89,189.23,81.46z M56.5,51.77
		c14.53-6.95,16.08,8.61,13.03,15.95c-2.49,5.99-7.79,10.44-14.11,12.1c-1.37,0.36-2.7,0.52-4.02,0.59
		C45.92,70.25,45.79,56.9,56.5,51.77z"/>
	<path d="M304.23,345.06c-11.23-4.27-23.68-7.38-35.74-5.19c-16.17,2.93-33.09,19.71-18.88,35.32c14.13,15.51,39,8.48,51.75-5.01
		c3.9-4.12,7.16-8.8,9.96-13.82c7.02,2.71,14.13,4.98,21.76,5.19c13.36,0.38,25.59-8.02,24.41-22.36c-0.39-4.75-7.85-4.79-7.46,0
		c1.19,14.55-14.97,16.12-25.39,13.51c-3.35-0.84-6.59-2.03-9.81-3.31c7.99-17.74,11.25-38.65,14.57-56.42
		c0.88-4.69-6.31-6.71-7.2-1.98c-1.26,6.76-2.51,13.65-3.96,20.53c-0.37,0.24-0.73,0.55-1.03,0.96
		c-4.03,5.39-18.15,15.52-23.18,6.89c-3.95-6.79,2.77-20.23,5.54-26.75c1.85-4.37-4.57-8.18-6.44-3.77
		c-2.16,5.08-5.89,13.11-7.32,20.81c-1.84,3.72-3.71,7.72-6.71,10.65c-4.74,4.63-13.51,5.47-14.35-2.95
		c-0.87-8.75,4.21-20.62,8.41-27.94c2.39-4.17-4.06-7.94-6.44-3.77c-1.75,3.07-3.94,7.4-5.8,12.2c-0.26,0.24-0.5,0.51-0.71,0.85
		c-3.94,6.49-7.7,21.46-17.22,21.29c-13.15-0.24-4.91-22.79-1.34-28.53c0.49-0.79,0.64-1.56,0.55-2.28c0.21-2.3-1.66-4.94-4.63-4.24
		c-14.67,3.45-20.72,18.16-26.93,30.38c-2.23,4.39-4.35,8.97-6.52,13.55c-5.29-3.35-11.33-5.7-17.71-6.64
		c-21.09-3.12-48.34,11.73-36.78,36.24c10.26,21.76,34.74,14.38,46.49-1.06c4.09-5.37,7.37-11.21,10.42-17.2
		c9.19,9.04,13,22.29,4.21,35.29c-2.7,3.99,3.77,7.73,6.44,3.77c11.21-16.59,5.61-34.62-7.22-45.99c0.93-1.92,1.86-3.84,2.8-5.76
		c4.6-9.36,9.54-23.44,18.25-30.86c-3.81,10.85-4.86,24.99,6.03,29.84c9.09,4.04,15.35-0.79,20.17-7.6
		c0.55,3.91,2.13,7.35,5.28,9.79c9.14,7.08,17.93,1.25,24.04-6.37c0.87,1.97,2.17,3.72,4.13,5.11c7.51,5.33,17.11,2.25,24.55-3.06
		c-2.01,7.57-4.47,14.98-7.69,22.04C306.45,345.93,305.34,345.48,304.23,345.06z M188.31,355.29c-5.94,6.89-14.03,12.12-23.27,8.23
		c-14.8-6.22-12.35-25.38,0.77-31.67c11.36-5.44,24.93-3.03,35.06,3.71C197.31,342.61,193.37,349.43,188.31,355.29z M302.4,356.26
		c-6.96,11.56-18.86,21.27-33.16,20.24c-11.22-0.81-23.79-12.32-13.2-22.97c5-5.02,12.65-6.6,19.42-6.84
		c10.2-0.37,19.41,3.09,28.54,6.76C303.49,354.39,302.96,355.33,302.4,356.26z"/>
	<path d="M381.16,375.48c5.34-2.55,9.29-7.47,11.57-13.05c2.28-5.57,2.85-12.1,1.54-18.09c-1.25-5.86-3.46-10.47-4.9-14.75
		c-0.74-2.14-1.31-4.34-1.62-6.66c-0.31-2.34-0.31-4.78,0.5-7.64c-2.82,1.01-5.07,3.56-6.45,6.38c-1.39,2.86-2,6.01-2.1,9.11
		c-0.09,6.23,1.52,11.57,2.4,16.06c0.91,4.35,1.28,8.64,1.12,13.34C383.07,364.89,382.38,369.74,381.16,375.48z"/>
	<path d="M72.26,338.56c-0.59-1.57-1.05-3.28-0.94-5.61c-2.26,0.66-4.04,2.66-5.09,4.86c-1.06,2.23-1.46,4.67-1.45,7.04
		c0.12,4.76,1.51,8.61,2.34,11.59c0.84,2.84,1.46,5.58,1.91,8.81c0.46,3.23,0.72,6.71,0.79,11.29c4.3-1.75,7.29-5.56,8.88-9.84
		c1.59-4.28,1.71-9.32,0.35-13.76c-1.31-4.31-3.25-7.38-4.73-10.08C73.55,341.51,72.85,340.11,72.26,338.56z"/>
	<path d="M416.05,358.8c5.11-0.9,9.38-4.62,12.01-9.2c2.63-4.61,3.71-10.28,2.74-15.79c-0.51-2.8-1.47-5.34-2.54-7.44
		c-1.07-2.12-2.2-3.93-3.26-5.6c-1.06-1.65-2.01-3.22-2.82-5.01c-0.82-1.79-1.48-3.72-1.52-6.31c-2.33,1.22-3.85,3.82-4.56,6.44
		c-0.73,2.64-0.7,5.45-0.34,7.99c0.79,5.07,2.35,9,2.78,12.05c0.55,3.23,0.66,6.66,0.31,10.38
		C418.5,350.05,417.71,353.96,416.05,358.8z"/>
	<path d="M37.78,342.77c5.1-0.9,9.38-4.62,12.01-9.2c2.63-4.61,3.71-10.28,2.74-15.79c-0.51-2.8-1.47-5.34-2.54-7.44
		c-1.07-2.13-2.2-3.93-3.26-5.6c-1.06-1.65-2.01-3.22-2.82-5.01c-0.81-1.79-1.48-3.72-1.52-6.31c-2.33,1.22-3.85,3.82-4.56,6.44
		c-0.73,2.64-0.7,5.45-0.34,7.99c0.79,5.07,2.35,9,2.78,12.05c0.55,3.23,0.66,6.66,0.3,10.38
		C40.22,334.02,39.44,337.93,37.78,342.77z"/>
	<path d="M66.55,143.68c2.2-3.81,3.02-8.6,1.97-13.17c-0.54-2.33-1.47-4.39-2.46-6.01c-1-1.64-2.01-2.95-2.98-4.13
		c-0.97-1.15-1.87-2.19-2.74-3.46c-0.86-1.27-1.68-2.67-2.03-4.85c-2.06,0.87-3.42,3.06-4.04,5.26c-0.64,2.22-0.58,4.57-0.25,6.66
		c0.73,4.15,2,7.16,2.36,9.23c0.49,2.24,0.8,4.65,0.86,7.46c0.05,2.84-0.12,5.95-0.93,10.2C60.68,150.45,64.35,147.47,66.55,143.68z
		"/>
	<path d="M43.74,167.72c2.2-3.81,3.02-8.6,1.97-13.17c-0.54-2.33-1.47-4.39-2.46-6.01c-1-1.64-2.01-2.95-2.98-4.13
		c-0.97-1.15-1.87-2.19-2.74-3.46c-0.86-1.27-1.68-2.67-2.03-4.85c-2.06,0.87-3.42,3.06-4.04,5.26c-0.64,2.22-0.58,4.57-0.25,6.66
		c0.73,4.15,2,7.16,2.36,9.23c0.49,2.24,0.8,4.65,0.86,7.46c0.05,2.84-0.12,5.95-0.93,10.2C37.87,174.49,41.54,171.51,43.74,167.72z
		"/>
	<path d="M173.84,183.84c2.2-3.81,3.02-8.6,1.97-13.17c-0.54-2.33-1.47-4.39-2.46-6.01c-1-1.64-2.01-2.95-2.98-4.13
		c-0.97-1.15-1.87-2.19-2.74-3.46c-0.86-1.27-1.68-2.67-2.03-4.85c-2.06,0.87-3.42,3.06-4.04,5.26c-0.64,2.22-0.58,4.57-0.25,6.65
		c0.73,4.15,2,7.16,2.36,9.23c0.49,2.24,0.8,4.65,0.86,7.46c0.05,2.84-0.12,5.95-0.93,10.2
		C167.98,190.61,171.65,187.62,173.84,183.84z"/>
	<path d="M462.8,369.21c1.43-2.61,2-5.56,2.05-8.42c0.08-2.86-0.61-5.82-1.35-8.2c-0.76-2.45-1.69-4.62-2.49-6.6
		c-0.84-1.97-1.55-3.75-2.08-5.39c-0.55-1.65-0.88-3.18-1.03-5.03c-0.27-3.65,0.18-7.78,2.14-12.71c-5.34,0.94-9.82,5.46-11.73,11
		c-0.99,2.75-1.3,5.99-0.94,8.92c0.32,2.96,1.21,5.61,2.15,7.96c1.95,4.73,4.29,8.18,5.66,11.52c0.74,1.75,1.35,3.57,1.68,5.52
		c0.35,1.96,0.36,4.05-0.59,6.61C458.96,373.98,461.41,371.8,462.8,369.21z"/>
	<path d="M98.86,156.8c2.31-1.69,4.92-2.98,7.79-3.35c1.95-0.25,3.65-1.49,3.65-3.65c0-1.77-1.68-3.9-3.65-3.65
		c-4.17,0.54-8.04,1.84-11.47,4.35c-1.59,1.16-2.37,3.17-1.31,4.99C94.78,157.06,97.26,157.97,98.86,156.8z"/>
	<path d="M89.96,173.56c3.71-3.4,8.02-5.8,12.84-7.23c4.49-1.33,2.58-8.37-1.94-7.03c-6.04,1.78-11.42,4.85-16.06,9.1
		C81.33,171.58,86.5,176.72,89.96,173.56z"/>
	<path d="M89.84,178.85c-4.02,2.72-8.03,5.44-12.05,8.16c-3.87,2.62-0.22,8.94,3.68,6.3c4.02-2.72,8.04-5.44,12.05-8.16
		C97.39,182.53,93.74,176.21,89.84,178.85z"/>
	<path d="M75.52,227.48c2.82-2.38,6.05-4.38,9.46-5.8c1.82-0.75,3.11-2.42,2.55-4.49c-0.47-1.72-2.65-3.31-4.48-2.55
		c-4.66,1.93-8.82,4.42-12.68,7.68C66.77,225.35,71.95,230.49,75.52,227.48z"/>
	<path d="M74.49,244.28c2.35-3.03,5.3-4.92,9.07-5.66c4.6-0.91,2.65-7.94-1.94-7.03c-4.82,0.95-9.27,3.65-12.28,7.54
		c-1.2,1.56-1.52,3.64,0,5.16C70.59,245.53,73.28,245.84,74.49,244.28z"/>
	<path d="M80.87,267.97c-2.89,2.89-5.77,5.78-8.65,8.68c-3.32,3.33,1.84,8.49,5.16,5.16c2.88-2.89,5.77-5.78,8.65-8.68
		C89.35,269.8,84.19,264.64,80.87,267.97z"/>
	<path d="M90.01,283.5c-1.44-1.44-3.71-1.34-5.16,0c-2.08,1.93-4.16,3.86-6.25,5.79c-1.45,1.34-1.36,3.8,0,5.16
		c1.44,1.44,3.71,1.34,5.16,0c2.08-1.93,4.16-3.86,6.25-5.79C91.45,287.32,91.36,284.86,90.01,283.5z"/>
	<path d="M92.68,297.39c-1.88-0.99-3.8-0.35-4.99,1.31c-0.8,1.12-1.6,2.25-2.41,3.37c-0.52,0.73-0.6,1.98-0.37,2.81
		c0.23,0.85,0.89,1.76,1.68,2.18c1.88,0.99,3.8,0.35,4.99-1.31c0.8-1.12,1.6-2.25,2.41-3.37c0.52-0.73,0.6-1.98,0.37-2.81
		C94.12,298.72,93.47,297.8,92.68,297.39z"/>
	<path d="M16.96,252.61l38.08,7.18c1.75,26.61,10.61,71.55,41.45,72.34c-0.1,5.43-0.21,10.85-0.27,16.28
		c-0.05,4.06,0.27,9.01,4.48,11.06c6.37,3.11,10.1-2.65,11.89-8.79c0.84,0.57,1.77,1.02,2.82,1.29c3.55,0.92,7.34-0.48,9.04-3.79
		c3.47-6.77-2.82-16.12-7.34-21.76c6.28-5.05,8.32-13.76,7.4-22.47c-1.15-10.94-3.05-21.39-4.41-31.9l8.43,1.59
		c2.15,0.28,4.29,0.42,6.41,0.42c8.66,0,16.99-2.31,23.96-6.71c6.06-3.83,10.59-8.95,13.35-14.84c0,0,149.93,15.52,152.14,15.7
		c-0.19,4.53,1.07,9.73,1.42,10.63c1.1,2.83,3.85,6.22,6.98,6.88c8.34,1.77,17.18,1.93,25.77,2.56c4.84,0.35,9.69,0.72,14.52,0.9
		c2.42,0.09,4.85,0.52,7.29,0.63c6.83,0.3,13.66,1.04,20.48,1.58c13.39,1.05,26.75,2.2,40.09,3.62
		c19.39,2.06,53.23,6.47,56.43-21.53c3.03-26.5-31.62-25-48.94-26.83c-4.7-0.5-9.38-0.94-14.08-1.4c-2.53-0.25-5.05-0.5-7.58-0.73
		c-7.19-0.68-14.39-1.33-21.59-1.94c-7.2-0.61-14.41-1.18-21.61-1.72c-7.21-0.54-14.42-1.04-21.63-1.5
		c-0.36-0.02-0.72-0.05-1.08-0.07c-3.6-0.24-7.19-0.5-10.79-0.71c-1.8-0.11-3.6-0.2-5.4-0.27c-1.68-0.06-3.42-0.24-5.1-0.02
		c-3.49,0.45-6.38,2.58-8.43,5.39c-0.81,1.1-1.49,2.29-2.09,3.51c-0.16,0.33-1.52,3.83-1.58,3.82c-0.03,0-152.35-15.72-152.35-15.72
		c-1.96-16.75-17.13-31.14-37.15-33.75l-11.37-0.75c2.48-7.82,5.5-15.46,9.06-22.83c5.92-12.27,16.88-27.97,8.97-41.83
		c-0.67-1.17-1.4-2.21-2.15-3.18c3.23-1.79,6.48-3.56,9.63-5.48c2.99-1.82,5.98-4.45,6.11-8.22c0.11-3.29-2.25-6.13-5.27-7.15
		c-0.54-0.18-1.08-0.3-1.61-0.38c2.26-5.25,2.98-11.26-0.78-15.12c-4.89-5.03-9.91-0.81-13.62,4.62c-0.18-0.25-0.32-0.52-0.53-0.76
		c-2.47-2.92-6.67-4.14-10.11-2.11c-3.35,1.97-4.36,6-4.86,9.56c-0.81,5.74-1.17,11.58-1.41,17.38
		c-14.59,2.6-30.34,14.67-37.44,23.87c-10.49,13.59-17.54,30.01-21.95,47.29l-37.72-2.49c-2.05-0.14-3.87,1.3-4.2,3.33
		c-0.37,2.23,1.18,4.33,3.42,4.62l36.19,4.72c-2.71,13.99-3.8,28.28-3.66,41.91l-36.26-4.73c-2.46-0.32-4.71,1.42-5.01,3.88
		C13.07,250.01,14.64,252.17,16.96,252.61z M461.75,255.37c14.09,1.47,36.44,4.39,25.78,23.48c-8.19,14.66-27.37,11.38-41.18,9.56
		c-3.94-0.52-7.9-0.91-11.86-1.25C443.87,276.56,448.38,260.65,461.75,255.37z M441.32,253.22c3.07,0.31,6.13,0.64,9.2,0.97
		c-10.08,9.33-14.06,24.34-25.97,32.17c-2.58-0.19-5.15-0.39-7.73-0.59C426.74,277.02,429.28,260.72,441.32,253.22z M421.8,251.32
		c3.11,0.29,6.23,0.6,9.34,0.9c-2.63,2.83-4.81,6.1-6.74,9.65c-2.78,5.1-5.01,10.58-8.66,15.16c-1.65,2.07-3.59,3.92-5.92,5.21
		c-1.19,0.66-2.47,1.16-3.8,1.49c-0.68,0.17-1.47,0.47-2.15,0.55c-1.36,0.15-2.37,0.27-3.76,0.16c-1.48-0.12-2.95-0.24-4.43-0.36
		C405.44,273.98,409.33,258.77,421.8,251.32z M403.59,250.67c1.27-0.3,2.69-0.42,4.04-0.44c0.77-0.01,2.19,0.12,3.83,0.17
		c-0.34-0.01-1.42,1.56-1.66,1.84c-0.56,0.65-1.1,1.32-1.62,2c-4.06,5.29-7.14,11.23-10.88,16.74c-1.84,2.71-3.84,5.31-6.18,7.61
		c-1.17,1.15-2.43,2.22-3.76,3.18c-0.63,0.45-1.32,1.03-2.05,1.26c-0.96,0.3-2.03,0.04-3-0.04c-1.08-0.09-2.16-0.18-3.23-0.26
		c1.63-1.51,3.11-3.26,4.4-5.25c4.65-7.18,5.51-16.77,11.9-22.85C397.71,252.39,400.5,251.39,403.59,250.67z M380.2,247.89
		c3.72,0.27,7.43,0.56,11.14,0.85c-2.03,1.74-3.8,3.87-5.32,6.32c-1.49,2.41-2.55,5.07-3.6,7.7c-1.65,4.11-3.2,8.38-5.79,12.02
		c-1.72,2.42-4.06,4.28-6.83,5.38c-1.34,0.54-2.83,0.95-4.24,1.23c-1.82,0.35-3.79-0.06-5.62-0.2
		C368.65,271.91,369.98,256.66,380.2,247.89z M348.3,263.41c0.64-4.44,2-11.84,0.9-17.52c7.28,0.42,14.55,0.89,21.82,1.38
		c-7.8,11.08-9.51,28.33-22.52,33.02c-1.82-0.14-3.64-0.29-5.46-0.43C346.23,274.85,347.69,267.62,348.3,263.41z M338.57,261.87
		l0.2-1.91c0.35-3.4-1.58-6.49-4.54-7.82c1.54-4.16,3.78-7.04,6.61-6.69c3.03,2.59,0.17,30.51-4.8,31.51
		c-2.57,0.52-3.91-3.18-4.18-8.21C335.34,268.31,338.2,265.53,338.57,261.87z M117.38,341.3c0.39,1.12,1.35,3.28-0.03,3.63
		c-1.39,0.35-2.39-2.52-2.99-3.37c-1.14-1.62-3.3-4.06-4.69-1.19c-1.44,2.98-1.66,6.45-3.21,9.37c-0.28,0.52-0.63,1.05-1.19,1.26
		c-2.2,0.8-1.74-3.57-1.72-4.6c0.08-4.95,0.17-9.91,0.25-14.86c0.02,0.2,6.51-2.08,6.73-1.76c0.07,0.1,0.13,0.21,0.21,0.31
		C113.48,333.38,115.94,337.22,117.38,341.3z M135.95,216.75c14.67,1.92,25.39,12.82,23.89,24.31c-0.69,5.3-3.94,10.03-9.14,13.31
		c-5.65,3.57-12.83,5.01-20.19,4.05l-11.87-1.55c-0.28-5.26-0.28-10.59,0.14-16.08c0.67-8.66,2.01-17.28,3.94-25.78L135.95,216.75z
		 M128.09,113.43c0.2-2.16-0.2-4.42,0.4-6.53c0.03-0.1,0.06-0.21,0.09-0.32c0.23-0.79,0.59-1.75,1.49-1.43
		c1.83,0.65,1.28,3.12,0.91,4.53c-0.58,2.22-1.24,4.15,0.45,6.11c2.9,3.36,6.25-1.68,7.66-3.96c0.95-1.54,1.72-3.17,2.63-4.73
		c0.6-1.03,1.31-3.65,2.68-3.91c2.64-0.5,0.63,4.56,0.24,5.64c-0.85,2.38-2.23,4.36-4,6.15c-1.31,1.32-1.58,4.67,0.61,5.43
		c2.16,0.75,4.13-1.42,6.24-1.48c2.72-0.08,2.54,1.27,0.47,2.5c-3.69,2.2-7.48,4.24-11.23,6.35c-2.88-1.76-6.07-2.68-9.42-2.92
		C127.51,121.04,127.74,117.23,128.09,113.43z M62.74,229.35c0.62-6.78,1.6-14.17,3.05-21.75c3.17,0.41,6.33,0.83,9.5,1.24
		c1.26,0.16,2.51,0.33,3.77,0.49c1.44,0.19,2.5,0.54,3.13-1.04c0.7-1.72,1.3-3.54,1.28-5.42c-0.01-1.02-0.24-2.03-0.72-2.92
		c-0.39-0.72-1.27-2.15-2.2-2.14c-2.16,0.01-4.47-0.34-6.65-0.49c-1.84-0.12-3.68-0.24-5.52-0.36c-0.01,0-0.24-0.02-0.24-0.02
		c6.37-25.34,18.62-50.69,41.4-61.01c8.76-3.97,22.84-5.88,28.75,3.89c6.17,10.21-3.72,23.82-8.05,32.57
		c-6.98,14.12-12.21,29.1-15.39,44.53c-3.18,15.42-4.48,31.28-3.69,47.02c0.4,8.03,1.35,16.04,2.79,23.95
		c1.25,6.88,3.6,13.64,3.62,20.71c0.02,7.35-4.25,12.15-10.01,14.57c-6.24,2.62-14.21,2.44-20.35-0.34
		c-12.02-5.44-17.42-19.72-20.46-31.61c-2.5-9.81-3.73-19.93-4.34-30.02l10.15,1.91c0.67-1.05,1.24-2.17,1.64-3.36
		c1-3.01,0.74-5.94-0.35-8.69l-11.84-1.55C61.94,241.44,62.28,234.36,62.74,229.35z"/>
	<path d="M471.29,280.73c5.63-1.71,10.8-7.55,7.64-13.6c-1.82-3.49-5.2-5.13-9.06-5.06c-2.21,0.04-4.71,0.15-7.03,0.71
		c-1.77,0.43-3.43,1.12-4.79,2.23c-2.54,2.08-3.83,5.28-2.96,8.51C456.97,280.51,465,282.64,471.29,280.73z M462.68,270.88
		c0.29-0.71,1.05-1.09,1.78-1.32c1.77-0.57,5.23-1.17,6.9-0.14c2.2,1.35,0.65,3.07-1.07,3.92
		C468.54,274.2,460.95,275.07,462.68,270.88z"/>
	<path d="M169.3,419.93c-2.11-0.53-7.09,3.13-8.11,4.01c-3.33,2.88-6.15,6.45-8.85,9.79c-4.96,6.13-9.04,12.93-12.56,19.96
		c3.5-1.91,6.87-4.09,10.08-6.55c4.45-3.41,8.55-7.24,12.19-11.44c3.34-3.85,7.21-8.2,8.11-13.32
		C170.43,420.84,170.04,420.12,169.3,419.93z"/>
	<path d="M161.51,476.22c-4.78-1.76-10.73-1.04-13.42,3.39c-3.2,5.28,4.21,6.02,7.98,5.4c4.01-0.66,8.03-2.22,11.61-4
		c0.03-0.02-2.18-2.23-2.45-2.52C164.18,477.41,162.94,476.75,161.51,476.22z"/>
	<path d="M338.75,447.49c2.48-4.17,4.64-8.6,6.2-13.16c0.79-2.29,1.76-5.05,1.55-7.51c-0.62-7.44-11.09,5.42-12.29,6.94
		c-2.42,3.08-4.69,6.28-7,9.44c-6.32,8.63-12.01,17.62-16.13,27.5c-1.23,2.94-2.31,5.95-3.28,9
		C319.95,470.62,331.14,460.31,338.75,447.49z"/>
	<path d="M515.35,368.04c-9.28,0.76-18.51,1.58-27.75,2.31c-13.87-0.5-17.01,13.93-4.9,16.91c-0.32,1.37-1.41,5.14-4.39,9.59H53.75
		c-2.71-4.05-3.86-7.56-4.29-9.19c0.02,0,0.04,0,0.06,0c14.56-1.72,11.84-17.84-2.79-17.31c-9.25-0.74-18.47-1.55-27.75-2.31
		c-24.32-3.3-25.84,24.33-1.26,22.27c0.44-0.04,0.89-0.07,1.33-0.11c1.28,4.84,6.09,17.97,21.82,27.27
		c10.25,68.67,59,126.57,126.46,156.18l-25.36,80.71c-0.21,0-0.42-0.03-0.64-0.03c-18.13,0-32.84,14.7-32.84,32.84
		c0,18.14,14.7,32.84,32.84,32.84c18.13,0,32.84-14.7,32.84-32.84c0-11.21-5.63-21.1-14.2-27.02l8.49-18.45l202.34,2.13l27.26,59.7
		c10.54,23.09,19.5,19.67,11.96-4.57L371.2,574.12c70.04-30.34,120.17-91.07,128.38-162.81c9.29-8.37,12.51-17.57,13.47-21.29
		c1.19,0.1,2.36,0.2,3.55,0.3C541.19,392.37,539.66,364.74,515.35,368.04z M39.25,403.15c0.02,0.32,0.07,0.64,0.09,0.97
		c-6.25-5.54-9.03-11.44-10.17-14.76c3.43-0.29,6.86-0.57,10.29-0.86c0.14,0.77,0.86,4.26,3.15,8.9
		C40.49,398.39,39.07,400.63,39.25,403.15z M173.65,488.52c-9.59,3.4-24.33,8.18-32.63,1.73c-7.84-6.09-4-15,3.81-18.83
		c10.41-5.1,24.62-2.97,33.25,4.52c8.05-4.68,15.49-10.69,20.74-18.22c3.96-5.69,9.83-17,4.99-23.55c-1.87-2.53-6.17-1.83-8.95-1.52
		c-6.3,0.71-12.79,4.15-18.35,7.03c-14.79,7.68-29.68,19.44-39.11,33.22c-3.65,5.34-7.04,10.93-9.11,17.05
		c-2.64,7.8-3.6,15.99-4.09,24.17c-0.14,2.39-0.77,11.73-5.41,7.81c-1.32-1.12-1.9-2.78-2.38-4.38c-4.7-15.49-1.71-33.25,2.96-48.37
		c-4.53,0.99-9.16,1.66-13.86,1.96c-4.95,0.32-6.37-7.03-1.42-7.35c6.22-0.4,12.31-1.41,18.17-3.03c0.99-2.6,2.03-5.12,3.11-7.52
		c4.4-9.83,10.11-19.2,17.45-27.15c6.97-7.55,14.95-14.86,25.18-17.36c3.25-0.79,6.28-1.33,9.05,0.76c2.1,1.59,3.26,3.65,3.4,6.3
		c0.32,6.03-3.56,12.17-6.82,16.96c3.07-1.55,6.2-3,9.44-4.25c9.83-3.79,22.48-6.65,30.78,1.91c8.02,8.27,6.26,20.96,0.53,29.85
		c-6.69,10.39-17.82,18.35-29.54,23.79c2.98,4.89,4.83,10.31,6.43,15.74c3.12,10.58,5.34,20.85,13.61,29.23
		c6.79,6.88,16.47,9.77,26.38,8.14c8.12-1.34,15.51-5.46,21.4-10.8c0.64-0.58,1.41-1.22,2.29-1.1c1.97,0.27,2.45,1.86,2.34,3.65
		c-0.12,1.85-0.87,3.89-1.26,4.87c-1.18,2.94-3.27,5.25-6.01,7.05c-9.51,6.22-22.5,8.44-33.84,6.09
		c-13.44-2.77-25.45-12.05-30.46-23.97c-2.47-5.87-4.14-11.99-6.02-18.03C179.35,503.76,174.7,488.15,173.65,488.52z M176.44,624.36
		l18.62-40.47c23.45,7.09,48.59,10.98,74.76,10.98c25.8,0,50.59-3.78,73.76-10.69l19.25,42.15L176.44,624.36z M435.63,460.11
		c-0.72,2.18-1.78,4.64-3.16,6.5c-2.1,2.84-5.45,5.17-8.42,7.12c-0.38,0.25-4.16,2.54-5.96,3.67c-0.58,0.37-0.95,0.61-0.94,0.63
		c0.44,0.7,0.89,1.36,1.36,1.94c5.06,6.25,12.03,12.18,14.62,19.97c5.26,15.85-15.47,35.43-32.34,27.46
		c-3.73-1.76-6.72-4.91-7.57-8.8c-0.57-2.62-0.13-9.7,4.64-7.75c1.89,0.77,2.13,3.02,3.11,4.48c1.19,1.77,2.95,3.19,4.96,4.07
		c5.44,2.4,12.59,1.27,16.08-3.69c1.71-2.43,0.73-5.13-0.48-7.51c-1.51-2.98-3.9-5.58-6.24-7.99c-4.26-4.37-8.44-8.59-11.36-13.88
		c-2.59,1.9-5.2,3.89-7.55,6.05c-5.87,5.4-11.36,11.78-17.94,17.16c-7.31,5.97-17.68,10.31-27.03,5.61
		c-3.83-1.92-6.45-4.66-8.13-7.89c-4.87,10.04-11.31,19.7-21.71,24.91c-9.8,4.91-21.1,3.57-26.33-6.26
		c-2.58-4.86-3.54-10.73-3.61-16.81c-3.92,5.05-9.31,10.42-16.49,9.85c-6.1-0.48-10.89-3.8-13.34-9.22
		c-1.47-3.24-1.97-6.78-2.02-10.33c-3.62,4.12-7.54,8-11.86,11.55c-5.4,4.44-13.64,11.43-21.38,7.4c-8.14-4.24-7.1-15.2-6.22-22.41
		c0.73-6.02,1.98-11.98,3.87-17.76c1.99-6.09,3.93-13.88,11.31-15.44c1.06-0.22,2.2-0.33,3.21,0.05c4.49,1.67,3.01,7.27,1.85,10.61
		c-1.74,5.02-3.8,9.84-4.98,15.06c-1.09,4.84-2.49,9.72-3.06,14.63c-0.23,1.99-1.22,7.17,1.69,7.66c3.33,0.56,6.85-2.74,9.1-4.6
		c3.07-2.53,5.47-5.24,8.22-8.08c4.27-4.41,9.1-9.05,10.07-15.15c0.35-2.23,0.5-4.49,1.02-6.69c1.3-5.38,3.92-12.39,10.15-13.77
		c1.72-0.38,3.74-0.45,5.02,0.73c1.4,1.29,1.3,3.44,1.04,5.29c-0.96,6.97-3.02,13.72-4.15,20.71c-0.62,3.86-1.51,7.69-1.72,11.59
		c-0.13,2.38-0.54,9,2.36,10.03c5.7,2.04,10.65-6.66,13.04-10.11c1.03-1.48,1.96-3.02,2.85-4.57c0.01-0.34,0-0.68,0.01-1.02
		c0.38-10.35,2.45-20.68,6.14-30.4c3.87-10.19,9.38-19.82,16.14-28.4c6.52-8.28,14.77-16.92,24.4-21.51c1.67-0.8,3.45-1.4,5.29-1.65
		c8.97-1.21,11.58,6.74,10.69,14.08c-3.35,27.72-26.56,48.62-49.02,63.6c-0.7,3.46-1.25,6.94-1.58,10.43
		c-0.42,4.4-0.55,8.86,0.29,13.22c1.04,5.44,2.69,12.38,10.14,11.92c5.71-0.35,10.14-4.45,13.61-8.3
		c6.26-6.96,10.03-15.66,13.54-24.08c0.64-11.45,6.57-24.06,12.23-30.85c5.17-6.21,14.64-15.2,23.84-11.56
		c5.85,2.31,9.19,9.33,8.9,15.21c-0.71,14.22-18.56,24.37-32.88,26.82c-0.44,2.34-0.55,4.7-0.06,7.03c0.64,3.01,2.48,5.94,5.34,7.49
		c5.11,2.75,10.49-0.51,14.48-3.49c4.92-3.68,8.68-8.47,12.94-12.75c4.9-4.92,9.89-9.43,15.39-13.29
		c-1.36-6.16-0.91-11.75,1.92-17.47c2.37-4.78,6.17-8.72,10.51-11.97c4.61-3.45,11.09-7,17-4.93c1.47,0.52,2.82,1.34,3.85,2.5
		C437.52,450.4,437.02,455.88,435.63,460.11z M498.19,398.15c-0.99-0.8-2.23-1.3-3.62-1.3h-4.88c2.26-4.73,2.88-8.21,2.93-8.54
		l-0.07-0.01c3.46,0.28,6.92,0.57,10.38,0.87C502.23,391.3,500.82,394.57,498.19,398.15z"/>
	<path d="M420.53,453.92c-7.7,2.2-8.45,10.13-6.42,17.2c3.25-1.72,6.43-3.56,9.06-5.99C425.77,462.73,436.1,449.48,420.53,453.92z"
		/>
	<path d="M376.95,470.99c1.24-2.56,3.1-7.79-0.16-9.7c-2.42-1.42-5.46,0.81-7.2,2.36c-2.38,2.12-4.11,4.81-5.86,7.41
		c-2.94,4.35-5.63,8.89-7.76,13.66c-0.14,0.32-0.28,0.65-0.42,0.97C364.3,483.38,373.53,478.07,376.95,470.99z"/>
	<path d="M377.75,122.06c0.71-0.91,1.35-1.89,1.89-2.83c2.75-4.85,5.19-11.73,3.6-17.33c-0.78-2.76-2.81-4.71-5.73-4.97
		c-5.62-0.5-8.97,5.97-10.67,10.5c-1.8,4.79-4.27,11.48-0.16,16.37C370.61,128.48,374.82,125.8,377.75,122.06z"/>
	<path d="M202.22,94.43c-16.11,26.33-23.2,60.41-12.42,90.42c7.25,20.18,25.55,42.48,47.27,32.49
		c21.77-10.02,28.47-39.63,18.55-61.97c10.01-2.28,20.36-2.14,30.41-4.15c10.6-2.13,18.82-7.28,26.13-15.19
		c3.71,3.69,7.38,7.22,10.49,10.58c-12.73,5.88-24.19,14.09-29.78,28.21c-4.33,10.96-4.58,26.19,5.23,35.49
		c17.53,16.61,36.74-4.04,48.97-24.39c-0.06,0.77-0.15,1.52-0.19,2.29c-0.55,9.77,0.15,23.87,10.22,29.32
		c12.98,7.04,26.31-7.71,33.52-20.32c0.97,8.33,3.29,16.48,8.5,21.38c17.1,16.08,35.15-7.91,47.19-30.04
		c0.63,5.26,1.68,10.52,3.42,15.54c2.75,7.95,7.26,16.11,16.05,18.32c6.41,1.61,12.75-1.49,17.75-5.29
		c6.66-5.06,12.17-11.5,16.88-18.38c2.41-3.52,4.62-7.17,6.69-10.9c1.83-3.3,5.02-7.17,4.08-11.16c-0.43-1.84-2.03-3.51-3.92-3.47
		c-1.62,0.04-2.96,1.26-3.98,2.51c-2.34,2.86-3.91,6.22-5.27,9.62c-3.73,9.34-8.68,18.27-16.29,25.03
		c-2.56,2.28-7.19,5.97-10.93,5.36c-2.65-0.43-4.38-2.92-5.55-5.12c-2.67-5.04-3.75-11-4.51-16.6c-1.38-10.13-0.69-20.49,0.92-30.55
		c19.81-12.75,41.07-36.01,48.93-59.55c2.75-8.23,5.88-20.59-1.75-27.06c-13.11-11.12-28.67,5.83-35.88,15.63
		c-9.32,12.67-16.47,27.06-20.93,42.48c-2.88,9.93-5.85,24.24-6.28,38.61c-4.52,8.86-9.44,17.45-14.96,25.57
		c-2.73,4.02-5.53,8.14-9.24,11.33c-4.54,3.91-11.67,7.28-15.15,0.44c-2.11-4.15-2.94-8.83-3.4-13.46
		c-0.58-5.79-0.65-11.63-0.23-17.43c0.21-2.9,0.55-5.8,1.01-8.67c0.24-1.46,0.5-2.92,0.8-4.37c0.23-1.09,0.32-2.52,0.85-3.5
		c0.34-0.62,0.89-1.09,1.44-1.54c3.2-2.65,6.24-5.39,9.21-8.31c3.88-3.81,7.51-7.88,10.91-12.12c6.92-8.64,12.95-18.02,17.91-27.91
		c2.1-4.19,4.01-8.48,5.65-12.88c3.25-8.71,9.34-26.33,1.8-35.29c-1.99-2.36-4.75-3.8-7.86-3.78c-9.06,0.07-17.82,9.45-23.26,15.78
		c-6.58,7.66-11.7,16.49-15.89,25.65c-6.7,14.66-10.68,29.99-13.86,45.75c-1.1,5.44-1.91,10.93-2.38,16.46
		c-0.51,5.94-0.23,11.77-0.22,17.7c0.01,4.42-2.71,8.14-4.95,11.74c-2.35,3.77-5.12,7.29-8.23,10.47c-4.05,4.14-14,11.66-16.54,2.31
		c-2.09-7.71,0.03-16.39,2.27-23.82c2.11-6.99,4.9-13.76,7.97-20.39c1.96-4.24,4.95-8.52,5.2-13.33c0.19-3.68-1.61-9.27-5.52-10.33
		c-1.33-0.36-2.73-0.41-4.08-0.14c-4.73,0.94-6.87,7.48-8.71,11.33c-2.28,4.76-4.24,9.67-6.18,14.58c-1.24,3.14-2.63,6.23-4.17,9.24
		c-2.95,5.75-6.49,11.2-10.64,16.17c-5.13,6.14-18.68,22.37-27.61,16.01c-9.89-7.05-2.55-21.83,3.11-29.02
		c6.64-8.45,15.24-14.79,22.76-22.36c4.14-4.17-1.06-7.9-3.67-10.87c-1.46-1.67-2.82-3.43-4.28-5.1c-2.35-2.69-5.16-5.14-7.37-7.9
		c-0.4-0.5-0.8-1.01-1.21-1.51c5.6-7.98,8.96-17.47,6.9-27.32c-3.53-16.9-24.31-23.05-30.14-6.12
		c-4.28,12.41,3.65,23.79,13.27,34.05c0.18,0.2-5.95,5.64-6.56,6.14c-6.43,5.3-12.29,6.77-20.39,8.13
		c-7.3,1.23-14.66,2.14-21.88,3.77c-13.67,3.09-27.15,9.43-30.59,24.29c-0.99,4.28,5.69,6.5,6.57,2.02
		c0.77-3.9,3.94-10.97,8.49-11.57c9.06-1.19,10.09,13.47,9.26,19.43c-1.42,10.22-6.18,21.15-15.68,26.21
		c-11.44,6.1-19.53-2.39-25.76-11.41c-2.33-3.38-4.21-7.06-5.75-10.86c-5.53-13.67-5.92-29.16-2.44-43.39
		c6.35-25.98,18.56-53.71,40.99-69.88c3.71-2.68,7.91-4.83,12.49-5.46c5.94-0.82,12.54,1.9,15.42,7.51
		c3.71,7.24-1.4,15.64-5.53,21.7c-3.14,4.61-6.92,7.19-11.05,10.63c-1.64,1.37-2.83,2.07-3.34,4.43c-0.9,4.13,1.29,7.24,5.24,8.34
		c15.49,4.33,22.62-20.5,23.8-31.43c1.48-13.7-3.83-26.95-17.68-31.52C237.72,49.6,215.05,73.45,202.22,94.43z M466.22,143.06
		c3.35-11.56,8.18-22.56,14.03-32.9c2.86-5.05,5.64-10.15,8.93-14.93c2.94-4.27,6.92-10.71,12.5-11.49c4.42-0.62,4.83,4.4,4.82,7.73
		c-0.01,2.92-1.1,6.39-1.95,9.1c-6.77,21.55-23.68,39.37-40.9,52.51C464.46,149.53,465.33,146.15,466.22,143.06z M412.81,136.53
		c3.01-9.78,6.55-19.63,11.03-28.92c5.21-10.81,10.9-22.49,20.22-30.3c0.69-0.58,1.48-1.16,2.38-1.2
		c6.51-0.26-2.15,21.65-3.35,24.49c-7.87,18.6-19.78,36.5-34.49,50.02C409.94,145.86,411.39,141.16,412.81,136.53z M308.07,97.28
		c7.26-3.91,10.89,8.63,10.2,13.6c-0.33,2.35-1.09,4.63-2.06,6.79c-0.3,0.66-2.35,4.1-3.82,6.56c-1.03-1.67-2.1-2.87-3.08-4.36
		C305.76,114.42,299.88,101.69,308.07,97.28z"/>
</g>
</svg>
